<svg width="180" height="52" viewBox="0 0 180 52" fill="none" xmlns="http://www.w3.org/2000/svg">
<g clip-path="url(#clip0)">
<path fill-rule="evenodd" clip-rule="evenodd" d="M62.8984 25.4966C62.8414 25.5041 62.786 25.5204 62.7341 25.5448L58.2684 25.5552C58.2171 25.5318 58.1605 25.5218 58.1041 25.5263H57.8801C57.4932 25.5263 57.2908 25.3727 57.2908 25.0751C57.312 24.7697 57.3879 24.4704 57.5148 24.1915L58.3073 22.0983C58.3155 22.073 58.3252 22.0483 58.3364 22.0241L58.6747 21.1983V21.1501L60.0191 17.5678C60.0386 17.4818 60.0677 17.4335 60.1058 17.4335C60.1439 17.4335 60.164 17.4818 60.1805 17.5678L61.4502 20.9869L61.8371 22.0338C61.8489 22.0485 61.8587 22.0647 61.8662 22.082L63.0455 25.1649C63.1038 25.3475 63.0552 25.4528 62.9006 25.501L62.8984 25.4966ZM66.8808 25.5352H66.6776C66.633 25.5124 66.5828 25.5024 66.5328 25.5062C66.3251 25.5083 66.1179 25.4889 65.9143 25.4484C65.4602 25.3526 65.0345 24.8244 64.6192 23.8635C63.0931 20.1477 61.8784 17.1676 60.9752 14.9234C60.84 14.6162 60.7145 14.4626 60.6077 14.4626C60.5009 14.4626 60.356 14.6548 60.2014 15.0481L56.5379 24.1907C56.4231 24.514 56.2603 24.8184 56.0547 25.0937C55.9604 25.2075 55.8444 25.3018 55.7135 25.371C55.5825 25.4403 55.439 25.4832 55.2913 25.4973C55.1408 25.5168 54.9891 25.5265 54.8372 25.5263C54.7904 25.5234 54.7436 25.5334 54.7021 25.5552H54.5863C54.4802 25.5552 54.4123 25.5649 54.3928 25.5938C54.3734 25.6227 54.354 25.6799 54.354 25.786V28.5513C54.354 28.6663 54.4026 28.7242 54.4892 28.7242C54.5758 28.7242 54.6147 28.6381 54.6341 28.4741C54.6566 27.9421 54.7608 27.4167 54.9433 26.916C55.3925 26.8325 55.8495 26.7971 56.3064 26.8106L65.1801 26.801C65.6173 26.7867 66.0547 26.8188 66.4849 26.8967C66.5921 27.1489 66.6674 27.4133 66.709 27.6839C66.7381 27.8568 66.7673 28.1158 66.7957 28.4712C66.8151 28.6344 66.8636 28.7212 66.9405 28.7212C67.0175 28.7212 67.0757 28.6634 67.0757 28.5483V25.7778C67.0742 25.6116 67.007 25.5352 66.8808 25.5352Z" fill="#74716E"/>
<path fill-rule="evenodd" clip-rule="evenodd" d="M83.682 24.4497C83.1156 24.9628 82.3729 25.241 81.6064 25.2272C80.9693 25.245 80.3371 25.1107 79.763 24.8354C79.189 24.5601 78.6898 24.152 78.3074 23.6453C77.4687 22.5427 77.0416 21.185 77.099 19.8041C77.099 18.1525 77.4859 16.9423 78.2686 16.1647C78.5883 15.8546 78.9685 15.6129 79.3859 15.4544C79.8032 15.2959 80.2489 15.224 80.6952 15.2432C81.2766 15.2327 81.8527 15.3534 82.3802 15.5963C82.9077 15.8393 83.3727 16.198 83.7403 16.6455C84.6097 17.7453 85.0524 19.1188 84.9876 20.5157C84.9973 22.3595 84.5626 23.6654 83.6828 24.4526L83.682 24.4497ZM81.1202 14.5487C80.2458 14.4988 79.3715 14.6465 78.5628 14.9806C77.7542 15.3148 77.0323 15.8267 76.4514 16.4778C75.5382 17.527 75.0491 18.8753 75.0786 20.2619C75.0477 21.659 75.5404 23.0177 76.4611 24.0742C77.0226 24.7077 77.7215 25.2063 78.5051 25.5324C79.2888 25.8584 80.1367 26.0035 80.985 25.9566C81.786 25.9926 82.5857 25.8631 83.3336 25.5762C84.0816 25.2893 84.7614 24.8512 85.3301 24.2898C85.8988 23.7283 86.3439 23.0557 86.6374 22.3145C86.9308 21.5732 87.0661 20.7796 87.0348 19.9837C87.0702 19.2469 86.9452 18.5112 86.6683 17.8268C86.3914 17.1424 85.9692 16.5254 85.4305 16.0178C84.2453 14.9821 82.6959 14.4539 81.1202 14.5487Z" fill="#74716E"/>
<path fill-rule="evenodd" clip-rule="evenodd" d="M110.149 25.4484C109.84 25.4446 109.534 25.3961 109.24 25.3044C109.136 25.2706 109.04 25.2156 108.958 25.1429C108.877 25.0702 108.811 24.9814 108.766 24.8822C108.637 24.5456 108.553 24.1937 108.515 23.8353L107.17 14.847C107.122 14.5502 107.035 14.3959 106.91 14.3959C106.803 14.3959 106.697 14.5111 106.591 14.7416L102.618 23.0577L98.6072 14.8552C98.4623 14.5584 98.3271 14.404 98.2106 14.404C98.0941 14.404 97.9978 14.5287 97.9589 14.775L96.5286 24.2627C96.4226 24.9735 96.2194 25.3571 95.9311 25.415C95.7884 25.4463 95.6426 25.4625 95.4964 25.4632C95.3418 25.4632 95.2642 25.5018 95.2642 25.5686C95.2642 25.6739 95.3508 25.7318 95.5248 25.7318C95.6988 25.7318 95.973 25.7222 96.327 25.7125C96.681 25.7029 96.8976 25.6932 96.9745 25.6932C97.0328 25.6932 97.2449 25.7029 97.6124 25.7125C97.9798 25.7222 98.2794 25.7318 98.5086 25.7318C98.7379 25.7318 98.8567 25.6739 98.8567 25.5686C98.8567 25.501 98.782 25.4632 98.6326 25.4632C98.4246 25.463 98.2173 25.4403 98.0142 25.3957C97.7244 25.3284 97.5795 25.1748 97.5795 24.9349C97.5777 24.707 97.5907 24.4793 97.6184 24.253L98.3727 18.4656H98.431C99.1174 19.8962 99.626 20.972 99.9584 21.6925C100.152 22.1377 100.713 23.2388 101.65 24.9958C101.902 25.4855 102.075 25.7259 102.162 25.7259C102.25 25.7259 102.443 25.4573 102.704 24.9097L105.884 18.3061H105.942L106.832 24.7019C106.881 25.0729 106.851 25.2874 106.757 25.3259C106.663 25.3645 106.603 25.4217 106.603 25.4892C106.603 25.5752 106.748 25.6331 107.028 25.6524C107.775 25.7103 108.758 25.7385 110.005 25.7385C110.256 25.7385 110.378 25.6806 110.378 25.5752C110.378 25.4699 110.304 25.4387 110.149 25.4484Z" fill="#74716E"/>
<path fill-rule="evenodd" clip-rule="evenodd" d="M156.539 33.2459C156.306 33.2459 155.941 33.2555 155.446 33.2652C154.951 33.2748 154.605 33.2845 154.412 33.2845C154.306 33.2845 153.996 33.2748 153.493 33.2652C152.99 33.2555 152.597 33.2459 152.304 33.2459C152.091 33.2459 151.985 33.2941 151.985 33.3802C151.985 33.4662 152.072 33.5145 152.237 33.5145C152.428 33.509 152.619 33.522 152.807 33.5531C152.994 33.5935 153.16 33.699 153.275 33.8504C153.391 34.0019 153.447 34.1894 153.435 34.3789C153.455 34.6957 153.465 35.7233 153.474 37.4618V40.0261C153.474 41.7163 153.455 42.7439 153.406 43.1275C153.348 43.6172 153.203 43.8769 152.981 43.9244C152.836 43.9341 152.692 43.9534 152.547 43.9726C152.334 43.9919 152.228 44.0402 152.228 44.1069C152.228 44.2029 152.324 44.2509 152.518 44.2509C152.73 44.2509 153.069 44.2412 153.533 44.2316C153.996 44.222 154.279 44.2123 154.364 44.2123C154.448 44.2123 154.751 44.222 155.283 44.2316C155.814 44.2412 156.268 44.2509 156.636 44.2509C156.82 44.2509 156.916 44.2027 156.916 44.1069C156.916 44.0303 156.839 43.9919 156.684 43.9919C156.434 43.9894 156.184 43.97 155.937 43.9341C155.618 43.8858 155.424 43.6269 155.366 43.1468C155.318 42.7246 155.291 41.6874 155.291 40.0357L155.282 34.2164C155.282 34.0628 155.33 33.9663 155.417 33.9285C155.597 33.8844 155.783 33.8682 155.968 33.8803C156.513 33.8725 157.04 34.0758 157.437 34.4471C157.735 34.7247 157.967 35.0639 158.117 35.4407C158.267 35.8175 158.332 36.2225 158.307 36.6271C158.323 37.2766 158.084 37.9067 157.64 38.3841C157.485 38.5764 157.29 38.7333 157.068 38.8443C156.846 38.9553 156.603 39.0177 156.355 39.0274C156.085 39.0274 155.949 39.0852 155.949 39.1906C155.949 39.2581 156.007 39.3056 156.123 39.3249C156.225 39.335 156.329 39.3382 156.432 39.3345C156.907 39.3492 157.38 39.2693 157.823 39.0994C158.267 38.9295 158.671 38.6732 159.013 38.3455C159.349 38.0152 159.613 37.6194 159.787 37.1831C159.962 36.7469 160.044 36.2794 160.028 35.8102C160.039 35.4864 159.978 35.1641 159.852 34.8657C159.725 34.5672 159.534 34.2997 159.293 34.0813C158.517 33.4625 157.531 33.1634 156.539 33.2459Z" fill="#74716E"/>
<path fill-rule="evenodd" clip-rule="evenodd" d="M142.967 43.934C142.869 43.8978 142.783 43.8357 142.719 43.7545C142.654 43.6733 142.613 43.576 142.6 43.4732C142.535 43.031 142.506 42.5844 142.513 42.1376L142.368 33.524C142.358 33.1976 142.293 33.0247 142.175 33.0343C142.1 33.0343 141.914 33.1879 141.633 33.4854C140.831 34.3402 139.32 35.8984 137.099 38.1599C136.104 39.1875 135.031 40.3012 133.88 41.4825H133.806L133.941 34.9531C133.941 34.7046 133.96 34.4566 133.999 34.2111C134.021 34.089 134.072 33.9738 134.147 33.8752C134.223 33.7766 134.321 33.6974 134.434 33.6442C134.685 33.5732 134.946 33.5442 135.207 33.5582C135.361 33.5582 135.439 33.5099 135.439 33.4239C135.439 33.3378 135.314 33.2896 135.066 33.2896C134.776 33.2896 134.418 33.2992 134.012 33.3088C133.606 33.3185 133.364 33.3281 133.296 33.3281C133.287 33.3281 133.113 33.3185 132.784 33.3088C132.455 33.2992 132.146 33.2896 131.865 33.2896C131.641 33.2896 131.527 33.3378 131.527 33.4239C131.527 33.5099 131.614 33.5582 131.788 33.5582C132.281 33.5582 132.57 33.7214 132.677 34.0382C132.736 34.2998 132.765 34.5671 132.764 34.8351L132.933 44.023C132.943 44.3198 133.008 44.4741 133.127 44.4741C133.246 44.4741 133.397 44.3688 133.62 44.1573C134.557 43.2353 135.994 41.8077 137.931 39.8746C138.598 39.2217 139.342 38.4537 140.164 37.5604C140.58 37.0994 140.996 36.648 141.411 36.2063H141.46L141.305 42.3135C141.276 43.2833 141.102 43.8212 140.793 43.9265C140.764 43.9362 140.569 43.9651 140.222 44.0007C139.932 44.0393 139.788 44.0873 139.788 44.1447C139.788 44.2404 139.903 44.2886 140.126 44.2886C140.493 44.2886 140.88 44.279 141.286 44.2693C141.691 44.2597 141.904 44.25 141.943 44.25C141.933 44.25 142.117 44.2597 142.504 44.2693C142.891 44.279 143.229 44.2886 143.529 44.2886C143.741 44.2886 143.848 44.2406 143.848 44.1447C143.848 44.0772 143.722 44.0297 143.474 44.0104C143.307 43.9754 143.137 43.9499 142.967 43.934Z" fill="#74716E"/>
<path fill-rule="evenodd" clip-rule="evenodd" d="M174.848 39.6891H172.151C172.093 39.6891 172.076 39.6505 172.093 39.5838L173.437 36.0015C173.456 35.9154 173.486 35.8672 173.524 35.8672C173.562 35.8672 173.582 35.9154 173.598 36.0015L174.923 39.5927C174.932 39.6602 174.913 39.6884 174.848 39.6884V39.6891ZM179.798 43.9436C179.59 43.9457 179.383 43.9263 179.179 43.8857C178.731 43.79 178.299 43.2617 177.884 42.3009C176.357 38.5846 175.142 35.6045 174.24 33.3608C174.105 33.0536 173.979 32.9 173.872 32.9C173.766 32.9 173.621 33.0922 173.466 33.4854L169.803 42.6273C169.688 42.9506 169.525 43.255 169.319 43.5303C169.127 43.7596 168.854 43.9074 168.556 43.9436C168.406 43.9631 168.254 43.9728 168.102 43.9726C167.986 43.9726 167.928 44.0109 167.928 44.0876C167.928 44.1833 168.024 44.2315 168.208 44.2315C168.507 44.2315 169.088 44.2122 169.939 44.1833C170.083 44.1833 170.345 44.1929 170.712 44.2026C171.078 44.2122 171.34 44.2219 171.494 44.2219C171.649 44.2219 171.746 44.1736 171.746 44.0779C171.746 44.0037 171.671 43.9629 171.522 43.9629H171.298C170.911 43.9629 170.708 43.8093 170.708 43.5118C170.729 43.2063 170.805 42.9071 170.932 42.6281L171.724 40.5439C171.754 40.4697 171.799 40.4289 171.86 40.4289L175.127 40.4192C175.159 40.4195 175.191 40.4298 175.217 40.4487C175.243 40.4676 175.262 40.4942 175.272 40.5246L176.451 43.6075C176.519 43.7804 176.481 43.8954 176.316 43.9436C176.181 43.9533 176.113 44.0015 176.113 44.0779C176.113 44.1543 176.258 44.1833 176.561 44.1929C177.199 44.2122 178.118 44.2219 179.325 44.2219C179.502 44.2263 179.68 44.2166 179.857 44.1929C179.953 44.1736 180.001 44.1353 180.001 44.0779C179.99 43.9926 179.933 43.9436 179.795 43.9436H179.798Z" fill="#74716E"/>
<path fill-rule="evenodd" clip-rule="evenodd" d="M123.585 44.0304C123.378 44.0325 123.171 44.0131 122.967 43.9725C122.513 43.8768 122.087 43.3485 121.672 42.3877C120.145 38.6714 118.93 35.6913 118.028 33.4476C117.893 33.1404 117.767 32.9868 117.66 32.9868C117.553 32.9868 117.409 33.179 117.254 33.5722L113.591 42.7141C113.476 43.0374 113.313 43.3418 113.107 43.6171C112.915 43.8464 112.642 43.9942 112.344 44.0304C112.193 44.0499 112.042 44.0596 111.89 44.0593C111.774 44.0593 111.716 44.0977 111.716 44.1744C111.716 44.2701 111.812 44.3183 111.996 44.3183C112.295 44.3183 112.876 44.299 113.726 44.2701C113.871 44.2701 114.133 44.2797 114.499 44.2894C114.866 44.299 115.128 44.3086 115.282 44.3086C115.437 44.3086 115.534 44.2604 115.534 44.1647C115.534 44.0905 115.459 44.0497 115.31 44.0497H115.086C114.699 44.0497 114.496 43.8961 114.496 43.5986C114.523 43.2939 114.598 42.9955 114.721 42.7149L117.214 36.1113C117.234 36.0252 117.263 35.977 117.301 35.977C117.339 35.977 117.359 36.0252 117.376 36.1113L120.227 43.698C120.295 43.8709 120.256 43.9859 120.092 44.0341C119.957 44.0438 119.889 44.092 119.889 44.1684C119.889 44.2448 120.034 44.2738 120.324 44.2834C120.962 44.3027 121.88 44.3124 123.087 44.3124C123.265 44.3168 123.443 44.3071 123.619 44.2834C123.716 44.2641 123.764 44.2258 123.764 44.1684C123.779 44.069 123.721 44.0304 123.585 44.0304Z" fill="#74716E"/>
<path fill-rule="evenodd" clip-rule="evenodd" d="M103.421 42.1095C103.346 42.1095 103.286 42.1837 103.256 42.3321C103.246 42.5517 103.18 42.7652 103.066 42.9531C102.951 43.1411 102.79 43.2974 102.599 43.408C102.157 43.5507 101.691 43.6094 101.226 43.5809C100.745 43.6258 100.259 43.5493 99.8148 43.3583C99.6864 43.2267 99.5888 43.0687 99.5288 42.8955C99.4687 42.7223 99.4478 42.538 99.4675 42.3559L99.4578 38.9465C99.4578 38.8505 99.4867 38.8025 99.5444 38.8025C100.656 38.8025 101.352 38.8122 101.623 38.8411C102.087 38.8893 102.37 39.0815 102.445 39.408C102.476 39.5729 102.495 39.7397 102.503 39.9073C102.503 40.0127 102.551 40.0609 102.638 40.0609C102.725 40.0609 102.773 39.9652 102.773 39.7827C102.773 39.687 102.793 39.3605 102.831 38.8129C102.851 38.525 102.87 38.2653 102.899 38.045C102.929 37.8624 102.948 37.7667 102.948 37.7571C102.948 37.6829 102.909 37.6421 102.842 37.6421C102.803 37.6421 102.726 37.7096 102.61 37.8342C102.523 37.9219 102.412 37.982 102.291 38.0071C102.168 38.0328 102.043 38.0489 101.917 38.0554C101.693 38.0746 100.912 38.0843 99.578 38.0843C99.5101 38.0843 99.472 38.0264 99.472 37.9211L99.4623 34.2431C99.4623 34.1474 99.4914 34.0991 99.5683 34.0991C100.622 34.0991 101.318 34.1184 101.647 34.157C102.188 34.2245 102.507 34.3974 102.633 34.6764C102.663 34.7598 102.683 34.8469 102.691 34.9353C102.701 35.0311 102.71 35.1372 102.73 35.2425C102.749 35.3479 102.788 35.4058 102.855 35.4058C102.923 35.4058 102.981 35.3479 103 35.2425C103.039 34.8715 103.068 34.5414 103.075 34.2824C103.085 34.054 103.107 33.8264 103.143 33.6005C103.172 33.4373 103.191 33.3505 103.191 33.3416C103.191 33.2555 103.162 33.2073 103.105 33.2073C103.114 33.2073 103.037 33.2266 102.873 33.2651C102.666 33.3092 102.456 33.338 102.244 33.3512C102.119 33.3609 100.9 33.3705 98.5809 33.3705C98.4749 33.3705 98.1649 33.3609 97.6623 33.3512C97.1596 33.3416 96.766 33.3319 96.4732 33.3319C96.2604 33.3319 96.1543 33.3802 96.1543 33.4662C96.1543 33.5523 96.2409 33.6005 96.406 33.6005C96.597 33.5951 96.7881 33.608 96.9766 33.6391C97.1634 33.6795 97.3294 33.785 97.4446 33.9365C97.5598 34.088 97.6166 34.2754 97.6048 34.4649C97.6242 34.782 97.6339 35.8096 97.6339 37.5478V40.1121C97.6339 41.8023 97.6145 42.83 97.5659 43.2136C97.5077 43.7033 97.3628 43.963 97.1409 44.0105C96.996 44.0201 96.8511 44.0394 96.7063 44.0587C96.4934 44.078 96.3873 44.1262 96.3873 44.193C96.3873 44.289 96.4839 44.3369 96.6771 44.3369C96.89 44.3369 97.2283 44.3273 97.6921 44.3176C98.156 44.308 98.439 44.2984 98.5234 44.2984C98.6975 44.2984 99.2098 44.308 100.051 44.3369C100.892 44.3659 101.733 44.3755 102.584 44.3755C102.782 44.3878 102.981 44.3683 103.173 44.3176C103.227 44.2823 103.274 44.2357 103.309 44.181C103.344 44.1264 103.367 44.065 103.376 44.0008C103.505 43.4728 103.566 42.9309 103.56 42.3878C103.537 42.1956 103.501 42.1095 103.421 42.1095Z" fill="#74716E"/>
<path fill-rule="evenodd" clip-rule="evenodd" d="M68.4275 43.0799C67.8603 43.5937 67.1164 43.872 66.3489 43.8575C65.7122 43.8748 65.0806 43.7402 64.5071 43.465C63.9336 43.1897 63.4349 42.7819 63.0529 42.2756C62.2142 41.173 61.787 39.8152 61.8444 38.4344C61.8444 36.7828 62.2313 35.5726 63.014 34.795C63.3337 34.4849 63.714 34.2432 64.1313 34.0847C64.5487 33.9262 64.9943 33.8543 65.4407 33.8735C66.022 33.8629 66.5981 33.9837 67.1256 34.2266C67.6531 34.4695 68.1182 34.8283 68.4857 35.2758C69.3552 36.3756 69.7978 37.7491 69.733 39.146C69.7428 40.9898 69.3081 42.2957 68.4282 43.0829L68.4275 43.0799ZM65.8664 33.179C64.992 33.1291 64.1177 33.2768 63.309 33.6109C62.5004 33.9451 61.7785 34.4569 61.1976 35.1081C60.4769 35.926 60.0191 36.9395 59.8831 38.0182H57.7784C57.7201 38.0182 57.6917 37.9892 57.6917 37.9128V37.6056C57.6917 35.8674 57.7014 34.8398 57.7208 34.5227C57.75 34.033 57.9337 33.7548 58.2623 33.6969C58.4024 33.6692 58.5446 33.6531 58.6873 33.6487C58.8613 33.6487 58.948 33.6004 58.948 33.5144C58.948 33.4283 58.8419 33.3801 58.6388 33.3801C58.4356 33.3801 58.0973 33.3897 57.6335 33.3993C57.1696 33.409 56.8866 33.4186 56.7925 33.4186C56.6984 33.4186 56.3959 33.409 55.8835 33.3993C55.3711 33.3897 54.9745 33.3801 54.6885 33.3801C54.4853 33.3801 54.3793 33.4283 54.3793 33.5144C54.3793 33.6004 54.4659 33.6487 54.631 33.6487C54.822 33.6432 55.0131 33.6561 55.2016 33.6872C55.3883 33.7276 55.5543 33.8331 55.6696 33.9846C55.7848 34.1361 55.8416 34.3236 55.8297 34.5131C55.8491 34.8299 55.8589 35.8575 55.8686 37.596V40.1602C55.8686 41.8505 55.8491 42.8781 55.8006 43.2617C55.7423 43.7514 55.5974 44.0111 55.3756 44.0586C55.2307 44.0682 55.0858 44.0875 54.9409 44.1068C54.7281 44.1261 54.622 44.1743 54.622 44.2411C54.622 44.3371 54.7186 44.3851 54.9118 44.3851C55.1247 44.3851 55.463 44.3754 55.9268 44.3658C56.3906 44.3561 56.6737 44.3465 56.7581 44.3465C56.8425 44.3465 57.1547 44.3561 57.6955 44.3658C58.2362 44.3754 58.6813 44.3851 59.0399 44.3851C59.233 44.3851 59.3296 44.3371 59.3296 44.2411C59.3296 44.1645 59.2522 44.1261 59.0974 44.1261C58.8474 44.1235 58.5978 44.1042 58.3505 44.0682C58.0316 44.02 57.8381 43.7611 57.7799 43.281C57.7313 42.8588 57.7052 41.8215 57.7052 40.1699V38.8929C57.7031 38.8812 57.7038 38.8691 57.7074 38.8577C57.711 38.8463 57.7174 38.8359 57.7259 38.8275C57.7344 38.819 57.7448 38.8127 57.7563 38.8091C57.7678 38.8056 57.78 38.8048 57.7918 38.8069H59.8413V38.8929C59.8092 40.2885 60.2982 41.6465 61.214 42.7052C61.775 43.3393 62.4738 43.8383 63.2576 44.1644C64.0414 44.4906 64.8895 44.6353 65.7379 44.5876C66.5389 44.6237 67.3386 44.4941 68.0866 44.2072C68.8345 43.9203 69.5143 43.4822 70.083 42.9208C70.6517 42.3593 71.0968 41.6867 71.3903 40.9455C71.6837 40.2043 71.8191 39.4106 71.7877 38.6147C71.8231 37.8779 71.6981 37.1423 71.4212 36.4579C71.1443 35.7735 70.7221 35.1564 70.1834 34.6488C68.9944 33.615 67.4438 33.087 65.8664 33.179Z" fill="#74716E"/>
<path fill-rule="evenodd" clip-rule="evenodd" d="M86.0214 43.3775C85.6976 43.6241 85.2985 43.7529 84.8906 43.7426C84.5251 43.7527 84.1609 43.6941 83.8173 43.5697C83.7199 43.5396 83.6309 43.4875 83.5571 43.4175C83.4834 43.3475 83.427 43.2614 83.3924 43.1661C83.316 42.8422 83.2869 42.5091 83.3057 42.177L83.296 38.7298C83.296 38.6623 83.3251 38.6244 83.3826 38.6244C83.6149 38.6244 83.8308 38.6244 84.0108 38.6341C84.4407 38.6384 84.8616 38.7578 85.2289 38.9798C85.6938 39.3024 86.0681 39.7374 86.3164 40.2438C86.5647 40.7502 86.6789 41.3111 86.648 41.8736C86.6768 42.1569 86.6345 42.4428 86.5249 42.7059C86.4153 42.969 86.2418 43.201 86.0199 43.3813L86.0214 43.3775ZM83.2953 34.2275C83.2864 34.1487 83.3071 34.0694 83.3535 34.0049C83.5341 33.9454 83.7254 33.9257 83.9144 33.947C84.1928 33.9424 84.4676 34.0099 84.7117 34.1429C84.9558 34.2758 85.1608 34.4697 85.3066 34.7053C85.6045 35.1484 85.7607 35.6706 85.7548 36.2034C85.778 36.4891 85.7364 36.7764 85.633 37.044C85.5296 37.3116 85.367 37.5528 85.1572 37.7497C84.8477 37.958 84.4762 38.0561 84.1034 38.0279C83.8739 38.0361 83.6441 38.0232 83.417 37.9893C83.3829 37.9787 83.3537 37.9565 83.3343 37.9267C83.315 37.8969 83.3067 37.8613 83.3109 37.8261L83.2953 34.2275ZM85.3544 38.0783C85.7829 37.7964 86.1401 37.4202 86.3982 36.9788C86.6564 36.5374 86.8086 36.0427 86.843 35.5334C86.8479 35.2764 86.7998 35.0211 86.7016 34.7832C86.6035 34.5454 86.4574 34.33 86.2723 34.1503C85.5616 33.5591 84.6436 33.2724 83.7202 33.3534C83.5753 33.3534 83.3042 33.3631 82.9084 33.3727C82.5125 33.3824 82.1831 33.392 81.9322 33.392C81.8739 33.392 81.6036 33.3824 81.1203 33.3727C80.6371 33.3631 80.2405 33.3534 79.941 33.3534C79.7281 33.3534 79.6221 33.4017 79.6221 33.4877C79.6221 33.5738 79.7087 33.622 79.8738 33.622C80.0648 33.6166 80.2559 33.6295 80.4444 33.6606C80.6311 33.701 80.7971 33.8065 80.9124 33.958C81.0276 34.1095 81.0844 34.2969 81.0725 34.4864C81.0919 34.8035 81.1017 35.8311 81.1017 37.5694V40.1336C81.1017 41.8238 81.0822 42.8515 81.0337 43.2351C80.9754 43.7248 80.8305 43.9845 80.6087 44.032C80.4638 44.0416 80.3189 44.0609 80.174 44.0802C79.9612 44.0995 79.8551 44.1477 79.8551 44.2145C79.8551 44.3105 79.9517 44.3584 80.1449 44.3584C80.3578 44.3584 80.6961 44.3488 81.1599 44.3392C81.6237 44.3295 81.9068 44.3199 81.9912 44.3199C82.1458 44.3199 82.514 44.3295 83.0929 44.3584C83.6717 44.3874 84.0115 44.397 84.1176 44.397C85.2013 44.4588 86.2664 44.0969 87.085 43.3887C87.3869 43.1134 87.6265 42.7776 87.7881 42.4035C87.9497 42.0294 88.0295 41.6254 88.0223 41.2184C88.0219 40.8361 87.9438 40.4579 87.7926 40.1063C87.6414 39.7548 87.4203 39.4373 87.1425 39.1728C86.6448 38.6687 86.0312 38.2926 85.3544 38.0769V38.0783Z" fill="#74716E"/>
<path fill-rule="evenodd" clip-rule="evenodd" d="M1.25485 27.2913C1.38596 26.2795 1.58938 25.2783 1.86356 24.2952C2.15177 23.3119 2.50711 22.3493 2.92713 21.4141C3.77875 19.5453 4.90239 17.811 6.26198 16.267C6.93862 15.5031 7.66838 14.7873 8.44588 14.1249C9.22449 13.4659 10.0516 12.8657 10.9203 12.3293C11.7813 11.7979 12.6799 11.3292 13.6091 10.927C14.4788 10.5459 15.3739 10.2251 16.2882 9.96686C16.5397 10.3571 16.7689 10.7611 16.9746 11.177C16.9746 11.1867 16.9843 11.1867 16.9843 11.1963C16.9843 11.206 16.994 11.2156 17.0037 11.2252C17.0113 11.2425 17.0252 11.2563 17.0426 11.2638C17.0523 11.2735 17.062 11.2735 17.0717 11.2831C17.0891 11.2906 17.1054 11.3003 17.1202 11.3121C17.1299 11.3121 17.1397 11.3217 17.1494 11.3217C17.1775 11.3296 17.2068 11.3329 17.236 11.3314C18.744 11.2067 19.4983 11.1681 21.0063 11.1392C21.4544 11.1295 21.6733 11.1295 22.1177 11.1295C22.5621 11.1295 22.7846 11.1295 23.229 11.1392C24.737 11.1681 25.4914 11.1971 26.9993 11.3217C27.0285 11.3232 27.0578 11.32 27.086 11.3121C27.0957 11.3121 27.1054 11.3024 27.1151 11.3024C27.1325 11.295 27.1488 11.2852 27.1636 11.2735C27.1734 11.2638 27.1831 11.2638 27.1928 11.2542L27.2316 11.2156C27.2413 11.206 27.2413 11.1963 27.251 11.1867C27.2607 11.177 27.2607 11.177 27.2607 11.1674C27.2607 11.1577 27.5124 10.6584 27.9277 9.99579C27.9471 10.0054 27.9665 10.0054 27.986 10.0151C28.8833 10.2714 29.7617 10.589 30.615 10.9656C31.031 11.1577 31.456 11.3365 31.8526 11.5703C32.0558 11.6756 32.2589 11.7817 32.4501 11.8967L33.0304 12.2425L33.3105 12.4154L33.5906 12.6076C33.7841 12.7322 33.9641 12.8576 34.1515 12.9785C34.5093 13.2471 34.867 13.4875 35.2054 13.7658C37.599 15.6755 39.5465 18.0787 40.9134 20.8095C42.2804 23.5402 43.0341 26.5333 43.1224 29.5818C43.1611 30.7506 43.0931 31.9206 42.9192 33.0772C42.7834 34.0641 42.5696 35.0389 42.2799 35.9925C41.8863 37.3297 41.3485 38.6209 40.6756 39.8433C40.4515 40.2751 40.2506 40.5853 40.1244 40.8034C39.9982 41.0216 39.9309 41.1299 39.9309 41.1299C39.9309 41.1299 39.863 41.2353 39.7181 41.4467C39.5732 41.6582 39.3797 41.9661 39.0802 42.3497C38.2501 43.4723 37.3042 44.5055 36.2577 45.4326C35.5176 46.0985 34.7256 46.7054 33.8894 47.2475C32.9102 47.8946 31.8749 48.4538 30.7958 48.9184C27.9803 50.1387 24.933 50.7412 21.8618 50.6848C18.7906 50.6285 15.7678 49.9146 12.9997 48.592C12.6031 48.4094 12.2169 48.1883 11.8203 47.9873C11.4469 47.7565 11.0376 47.5421 10.6701 47.2861C10.4767 47.1614 10.2832 47.036 10.0995 46.9151C9.91576 46.7942 9.73203 46.6465 9.54829 46.5211C9.17485 46.2622 8.82306 45.9639 8.4653 45.676C7.75105 45.0741 7.0774 44.4262 6.44871 43.7365C6.12008 43.3907 5.83028 43.016 5.52107 42.651L5.08489 42.07L4.86978 41.7799L4.66663 41.4831C2.41461 38.1915 1.16951 34.3228 1.08157 30.3438C1.07634 29.3232 1.13445 28.3033 1.25559 27.2898L1.25485 27.2913ZM13.4351 6.16496C14.2233 4.93733 14.7222 3.54865 14.8945 2.10264C15.0297 2.08335 15.1074 2.08335 15.2426 2.06405C15.3583 3.04346 15.8707 6.43356 17.1098 8.03697C17.1001 8.06591 17.0904 8.0852 17.0807 8.11117C17.0515 8.19724 17.0224 8.27441 16.994 8.36122C16.9746 8.40945 16.9649 8.45693 16.9455 8.50516L16.8872 8.73592L16.8581 8.87986C16.8404 8.96541 16.8275 9.05186 16.8192 9.13881C16.8095 9.17739 16.8095 9.22488 16.7998 9.26346C16.7901 9.38811 16.7901 9.52241 16.7901 9.6671V9.68639C16.0746 8.51481 14.828 6.82458 13.4358 6.162L13.4351 6.16496ZM17.9314 0.537065L15.9768 2.92772C15.9849 3.00266 15.9979 3.07701 16.0156 3.15031H18.9927L17.9314 0.537065ZM21.7091 0.364184L19.7851 2.48624L19.3116 3.00562L18.2391 0.37383L21.7091 0.364184ZM20.4043 8.36344C20.8855 9.00713 21.1737 9.77288 21.2356 10.5723C21.2341 10.589 21.2375 10.6057 21.2453 10.6205C21.4873 10.6205 21.6128 10.6109 21.854 10.6109V7.81586C21.854 7.4701 21.854 7.13399 21.8443 6.80752V6.11599C21.8346 5.26124 21.8346 4.40944 21.8249 3.44487C21.7569 3.91529 21.6703 4.42428 21.5642 4.94293C21.4298 5.75905 21.1858 6.5536 20.839 7.30538C20.6942 7.6183 20.5191 7.91649 20.3162 8.19576C20.3392 8.25304 20.3682 8.30775 20.4028 8.35899L20.4043 8.36344ZM17.3339 9.60254V9.68861C17.3353 9.94921 17.358 10.2093 17.4018 10.4662C17.4115 10.5048 17.4115 10.5523 17.4212 10.6005C17.4309 10.6487 17.4407 10.7348 17.4504 10.7927C18.7552 10.697 19.4027 10.6584 20.718 10.6294C20.7083 10.5716 20.6986 10.5241 20.6889 10.4662L20.6597 10.2644C20.6525 10.2119 20.6395 10.1604 20.6209 10.1108C20.6125 10.0586 20.5995 10.0072 20.5821 9.95721C20.5724 9.90898 20.5529 9.87114 20.5432 9.82291C20.5335 9.77468 20.5141 9.7272 20.5044 9.68861C20.4947 9.65003 20.4753 9.61442 20.4558 9.57361C20.4364 9.5328 20.4267 9.49941 20.4073 9.4586C20.3931 9.42576 20.3769 9.39379 20.3587 9.36289C20.3485 9.3193 20.3321 9.27735 20.3102 9.23823C20.2908 9.2093 20.2811 9.18036 20.2617 9.15217C20.2426 9.11181 20.2199 9.07331 20.1937 9.03716C20.1646 8.98893 20.1354 8.94144 20.107 8.90286C20.0976 8.88147 20.0844 8.86189 20.0682 8.84499C20.0294 8.77747 19.9816 8.71069 19.933 8.64317C19.933 8.64061 19.932 8.63816 19.9302 8.63635C19.9284 8.63454 19.9259 8.63352 19.9233 8.63352L19.9136 8.64317C19.8794 8.67443 19.8346 8.69166 19.7881 8.6914H19.7762C19.754 8.6898 19.7323 8.68387 19.7125 8.67394C19.6926 8.664 19.6749 8.65027 19.6604 8.63352C19.3341 8.84688 18.9461 8.94745 18.5564 8.91969C18.1668 8.89192 17.7972 8.73737 17.5049 8.47993C17.4855 8.53781 17.466 8.60459 17.4466 8.66246C17.4466 8.67211 17.4369 8.68175 17.4369 8.6914C17.4078 8.78711 17.3884 8.87392 17.369 8.96964C17.369 8.98893 17.3592 9.00822 17.3592 9.02751L17.3301 9.25827C17.3301 9.2872 17.3204 9.31614 17.3204 9.34434C17.3283 9.43042 17.3315 9.51686 17.3301 9.60329L17.3339 9.60254ZM19.3251 8.22915L16.3151 4.67582C16.5252 5.80594 16.9731 6.87926 17.6296 7.82551C17.7566 8.00577 17.926 8.15251 18.1231 8.25297C18.3202 8.35344 18.5389 8.40461 18.7604 8.40203C18.9584 8.38874 19.1505 8.32953 19.3213 8.22915H19.3251ZM19.5088 3.50423H21.2005C21.0866 4.49074 20.8696 5.46279 20.5529 6.40462L19.5073 3.50423H19.5088ZM19.567 4.6914L19.1324 3.50423H16.0776C16.1067 3.63853 16.1261 3.78247 16.1523 3.92642L19.6029 8.00729C19.632 7.97836 19.6612 7.95906 19.6992 7.92122C19.9741 7.61303 20.1961 7.26211 20.3565 6.88246L19.5633 4.69511L19.567 4.6914ZM23.5651 2.05441L22.1057 0.451738L19.6492 3.14883H21.2348C21.3506 2.18871 21.37 1.46825 21.37 1.44896C21.3765 1.37389 21.4127 1.30445 21.4707 1.25589C21.5287 1.20733 21.6037 1.18363 21.6792 1.19001H22.5299C22.6048 1.1868 22.6781 1.21164 22.7354 1.2596C22.7926 1.30756 22.8297 1.37514 22.8392 1.44896C22.8392 1.46825 22.8683 2.17906 22.9841 3.13918H24.5697L23.5651 2.05441ZM25.9724 0.364184L24.9088 2.99524L22.5023 0.364184H25.9724ZM26.2913 0.527419L25.2374 3.14883H28.2145C28.2242 3.07463 28.2436 2.99524 28.2534 2.91807L26.2913 0.525935V0.527419ZM26.6005 7.81586C26.475 7.99768 26.3059 8.14559 26.1085 8.24624C25.9111 8.3469 25.6915 8.39712 25.4697 8.39238C25.2709 8.38364 25.0777 8.3241 24.9088 8.2195L27.8963 4.65801C27.6949 5.79039 27.2534 6.8673 26.6012 7.81735L26.6005 7.81586ZM23.5554 10.4951C23.5457 10.5434 23.5457 10.5693 23.536 10.6198C24.8408 10.6487 25.4981 10.6777 26.8036 10.7734C26.8134 10.7059 26.8231 10.6487 26.8328 10.5812C26.844 10.534 26.8505 10.4858 26.8522 10.4373C26.8887 10.1828 26.9082 9.9263 26.9104 9.66932V9.57361C26.9121 9.49656 26.9088 9.4195 26.9007 9.34285C26.9007 9.31392 26.891 9.27533 26.891 9.24714C26.8813 9.17294 26.8716 9.10319 26.8619 9.03567C26.8619 9.00674 26.8522 8.98745 26.8522 8.96148C26.8352 8.87062 26.8125 8.78091 26.7842 8.69288C26.7842 8.67359 26.7745 8.66394 26.7648 8.64465L26.7065 8.47177C26.5341 8.62604 26.3325 8.74482 26.1136 8.82124C25.8946 8.89765 25.6626 8.93018 25.4309 8.91696C25.1189 8.89798 24.8166 8.80237 24.551 8.63872C24.5365 8.65546 24.5188 8.6692 24.499 8.67913C24.4791 8.68906 24.4574 8.695 24.4353 8.69659H24.4293C24.3832 8.69508 24.3389 8.67808 24.3038 8.64836L24.2941 8.63872C24.2941 8.64127 24.2931 8.64373 24.2913 8.64554C24.2894 8.64735 24.287 8.64836 24.2844 8.64836C24.1686 8.82124 24.0603 8.98448 23.9655 9.15736C23.946 9.1863 23.9363 9.21523 23.9169 9.24343C23.8989 9.2777 23.8827 9.31286 23.8684 9.34879C23.8482 9.38198 23.832 9.41732 23.8198 9.45415C23.8004 9.49273 23.7907 9.54022 23.7713 9.5788C23.7519 9.61738 23.7421 9.64632 23.7324 9.69381C23.715 9.74048 23.702 9.78867 23.6936 9.83775C23.6839 9.87634 23.6645 9.91195 23.6548 9.9624C23.6451 10.0129 23.6256 10.0774 23.6159 10.1353C23.6062 10.1932 23.5965 10.2214 23.5868 10.2696C23.5813 10.347 23.5716 10.424 23.5577 10.5003L23.5554 10.4951ZM23.4105 7.29722C23.0645 6.54432 22.8175 5.75031 22.6756 4.93477C22.5598 4.41538 22.4724 3.90713 22.4052 3.43671C22.4052 4.63723 22.3955 5.58845 22.3955 6.50034V10.6102C22.6375 10.6102 22.763 10.6102 23.0042 10.6198C23.0027 10.6031 23.0061 10.5864 23.0139 10.5716C23.0713 9.77116 23.36 9.00419 23.8452 8.3627C23.8841 8.31447 23.9132 8.25734 23.9513 8.19947C23.7441 7.91508 23.5629 7.61288 23.4098 7.29648L23.4105 7.29722ZM25.0925 3.49384L24.5996 4.88654L23.8841 6.88988C24.0444 7.26953 24.2665 7.62045 24.5413 7.92864C24.5712 7.95967 24.6034 7.98844 24.6377 8.01471L28.0793 3.92345C28.1085 3.77951 28.1376 3.63556 28.154 3.50126L25.0918 3.49162L25.0925 3.49384ZM23.6824 6.39498C23.3662 5.45246 23.146 4.48079 23.0251 3.49459H24.7168L23.6824 6.39498ZM28.9853 2.04476C29.1205 2.05441 29.1982 2.06405 29.3334 2.08335C29.5117 3.52665 30.0148 4.91154 30.8055 6.13528C29.4133 6.80752 28.1764 8.49774 27.4609 9.68861V9.66932C27.4609 9.52538 27.4609 9.39108 27.4512 9.26569C27.4495 9.22354 27.4429 9.18173 27.4318 9.14104C27.4236 9.05089 27.4106 8.96124 27.3929 8.87244L27.3638 8.7285C27.3444 8.6543 27.325 8.57491 27.2958 8.4881C27.284 8.43876 27.2678 8.39059 27.2473 8.34415C27.2182 8.26995 27.189 8.18092 27.1607 8.0941C27.1509 8.06517 27.1412 8.04588 27.1315 8.01991C28.3691 6.42614 28.8718 3.0264 28.9875 2.04699L28.9853 2.04476ZM3.68149 42.1279L3.88464 42.4447L4.10871 42.7519L4.55684 43.3662C4.87576 43.7602 5.17526 44.1631 5.5136 44.5282C6.16668 45.2761 6.87066 45.9787 7.62057 46.6309C7.99402 46.9478 8.36746 47.2646 8.76107 47.5525C8.95451 47.6964 9.14796 47.8493 9.35036 47.9843C9.55277 48.1193 9.74696 48.2529 9.93966 48.3879C10.3363 48.6662 10.7612 48.8873 11.1675 49.1373C11.5836 49.3599 11.9988 49.5981 12.4246 49.7903C14.065 50.5888 15.7988 51.1823 17.5863 51.5569C19.2593 51.8918 20.9652 52.0367 22.6711 51.9887C27.9833 51.8028 33.0532 49.7344 36.9636 46.1575C38.0515 45.1788 39.0323 44.0888 39.8899 42.9055C40.1991 42.5018 40.4022 42.1754 40.5471 41.955C40.692 41.7346 40.7712 41.6285 40.7712 41.6285C40.7712 41.6285 40.8392 41.5135 40.9743 41.2924C41.1095 41.0713 41.3224 40.7448 41.5547 40.2937C42.2684 39.0172 42.842 37.6682 43.2658 36.27C44.8505 31.2251 44.573 25.7843 42.4831 20.9244C41.7984 19.3691 40.9425 17.894 39.9309 16.5259C38.8377 15.0683 37.5611 13.7557 36.1323 12.6202C35.7745 12.3234 35.3779 12.0437 34.9918 11.7654C34.7983 11.6311 34.5952 11.5065 34.4025 11.3714L34.1037 11.1696C33.988 11.1021 33.8909 11.0449 33.7848 10.9774C33.5817 10.8528 33.3688 10.7274 33.1664 10.6064C32.964 10.4855 32.7414 10.3757 32.5188 10.2607C32.0938 10.0203 31.639 9.82885 31.1946 9.61738C30.4036 9.27084 29.5934 8.96935 28.768 8.7144C29.401 7.7573 30.2828 6.98815 31.3201 6.48847C31.3591 6.47431 31.3943 6.45132 31.4228 6.42131C31.4513 6.3913 31.4724 6.3551 31.4844 6.31559C31.4957 6.27609 31.4972 6.23446 31.4887 6.19427C31.4803 6.15408 31.4621 6.11652 31.4358 6.08483C30.5688 4.81819 30.0369 3.35503 29.889 1.83033C29.8797 1.76246 29.8464 1.70009 29.7951 1.6543C29.7439 1.60852 29.6779 1.58229 29.609 1.58029C29.2415 1.5417 29.0578 1.52241 28.7 1.49422C28.6606 1.48857 28.6206 1.49078 28.5821 1.50071C28.5436 1.51065 28.5075 1.52812 28.4759 1.55209C28.4199 1.59439 28.382 1.65613 28.3699 1.72497C28.3699 1.73462 28.3407 2.01286 28.2832 2.43579L26.3413 0.0614575C26.3316 0.0518118 26.3219 0.0518118 26.3122 0.0421661C26.3025 0.0325204 26.2816 0.0184229 26.2719 0.00655121C26.2605 -0.00112073 26.2467 -0.00453786 26.233 -0.00309449C26.2524 0.0161969 26.2427 0.00655121 26.233 0.00655121L17.9784 0.0184229C17.9687 0.0184229 17.959 0.0280686 17.9396 0.0280686C17.9259 0.0266252 17.9121 0.0300423 17.9007 0.0377143C17.8861 0.0449245 17.873 0.0547319 17.8619 0.0666514C17.8522 0.0762971 17.8425 0.0762971 17.8328 0.0859428L15.8998 2.45508C15.8416 2.02325 15.8132 1.75391 15.8132 1.74426C15.8084 1.70977 15.7965 1.67663 15.7782 1.64689C15.76 1.61716 15.7358 1.59146 15.7071 1.57138C15.6755 1.54741 15.6394 1.52994 15.601 1.52001C15.5625 1.51007 15.5224 1.50786 15.4831 1.51351C15.1156 1.55209 14.9319 1.56174 14.5644 1.60922C14.4959 1.61264 14.4307 1.63936 14.3797 1.68489C14.3287 1.73042 14.295 1.79199 14.2843 1.85927C14.1445 3.38545 13.6191 4.85188 12.7569 6.12267C12.7327 6.15547 12.7159 6.19303 12.7075 6.23283C12.6991 6.27263 12.6994 6.31375 12.7084 6.35343C12.7204 6.39294 12.7415 6.42914 12.77 6.45915C12.7985 6.48916 12.8337 6.51215 12.8727 6.52631C13.9199 7.03276 14.8112 7.80885 15.4539 8.77376C14.6311 9.03096 13.8241 9.33568 13.037 9.68639C12.0547 10.132 11.1051 10.6455 10.1951 11.223C9.28178 11.8057 8.41257 12.4539 7.59443 13.1626C6.77872 13.8781 6.01383 14.6489 5.30522 15.4694C4.60295 16.2974 3.96004 17.1733 3.38124 18.0908C1.07882 21.7649 -0.094198 26.0267 0.00605058 30.3534C0.107854 34.541 1.38045 38.6178 3.68149 42.1279Z" fill="#74716E"/>
<path fill-rule="evenodd" clip-rule="evenodd" d="M1.25485 27.2913C1.38596 26.2795 1.58938 25.2783 1.86356 24.2952C2.15177 23.3119 2.50711 22.3493 2.92713 21.4141C3.77875 19.5453 4.90239 17.811 6.26198 16.267C6.93862 15.5031 7.66838 14.7873 8.44588 14.1249C9.22449 13.4659 10.0516 12.8657 10.9203 12.3293C11.7813 11.7979 12.6799 11.3292 13.6091 10.927C14.4788 10.5459 15.3739 10.2251 16.2882 9.96686C16.5397 10.3571 16.7689 10.7611 16.9746 11.177C16.9746 11.1867 16.9843 11.1867 16.9843 11.1963C16.9843 11.206 16.994 11.2156 17.0037 11.2252C17.0113 11.2425 17.0252 11.2563 17.0426 11.2638C17.0523 11.2735 17.062 11.2735 17.0717 11.2831C17.0891 11.2906 17.1054 11.3003 17.1202 11.3121C17.1299 11.3121 17.1397 11.3217 17.1494 11.3217C17.1775 11.3296 17.2068 11.3329 17.236 11.3314C18.744 11.2067 19.4983 11.1681 21.0063 11.1392C21.4544 11.1295 21.6733 11.1295 22.1177 11.1295C22.5621 11.1295 22.7846 11.1295 23.229 11.1392C24.737 11.1681 25.4914 11.1971 26.9993 11.3217C27.0285 11.3232 27.0578 11.32 27.086 11.3121C27.0957 11.3121 27.1054 11.3024 27.1151 11.3024C27.1325 11.295 27.1488 11.2852 27.1636 11.2735C27.1734 11.2638 27.1831 11.2638 27.1928 11.2542L27.2316 11.2156C27.2413 11.206 27.2413 11.1963 27.251 11.1867C27.2607 11.177 27.2607 11.177 27.2607 11.1674C27.2607 11.1577 27.5124 10.6584 27.9277 9.99579C27.9471 10.0054 27.9665 10.0054 27.986 10.0151C28.8833 10.2714 29.7617 10.589 30.615 10.9656C31.031 11.1577 31.456 11.3365 31.8526 11.5703C32.0558 11.6756 32.2589 11.7817 32.4501 11.8967L33.0304 12.2425L33.3105 12.4154L33.5906 12.6076C33.7841 12.7322 33.9641 12.8576 34.1515 12.9785C34.5093 13.2471 34.867 13.4875 35.2054 13.7658C37.599 15.6755 39.5465 18.0787 40.9134 20.8095C42.2804 23.5402 43.0341 26.5333 43.1224 29.5818C43.1611 30.7506 43.0931 31.9206 42.9192 33.0772C42.7834 34.0641 42.5696 35.0389 42.2799 35.9925C41.8863 37.3297 41.3485 38.6209 40.6756 39.8433C40.4515 40.2751 40.2506 40.5853 40.1244 40.8034C39.9982 41.0216 39.9309 41.1299 39.9309 41.1299C39.9309 41.1299 39.863 41.2353 39.7181 41.4467C39.5732 41.6582 39.3797 41.9661 39.0802 42.3497C38.2501 43.4723 37.3042 44.5055 36.2577 45.4326C35.5176 46.0985 34.7256 46.7054 33.8894 47.2475C32.9102 47.8946 31.8749 48.4538 30.7958 48.9184C27.9803 50.1387 24.933 50.7412 21.8618 50.6848C18.7906 50.6285 15.7678 49.9146 12.9997 48.592C12.6031 48.4094 12.2169 48.1883 11.8203 47.9873C11.4469 47.7565 11.0376 47.5421 10.6701 47.2861C10.4767 47.1614 10.2832 47.036 10.0995 46.9151C9.91576 46.7942 9.73203 46.6465 9.54829 46.5211C9.17485 46.2622 8.82306 45.9639 8.4653 45.676C7.75105 45.0741 7.0774 44.4262 6.44871 43.7365C6.12008 43.3907 5.83028 43.016 5.52107 42.651L5.08489 42.07L4.86978 41.7799L4.66663 41.4831C2.41461 38.1915 1.16951 34.3228 1.08157 30.3438C1.07634 29.3232 1.13445 28.3033 1.25559 27.2898L1.25485 27.2913ZM13.4351 6.16496C14.2233 4.93733 14.7222 3.54865 14.8945 2.10264C15.0297 2.08335 15.1074 2.08335 15.2426 2.06405C15.3583 3.04346 15.8707 6.43356 17.1098 8.03697C17.1001 8.06591 17.0904 8.0852 17.0807 8.11117C17.0515 8.19724 17.0224 8.27441 16.994 8.36122C16.9746 8.40945 16.9649 8.45693 16.9455 8.50516L16.8872 8.73592L16.8581 8.87986C16.8404 8.96541 16.8275 9.05186 16.8192 9.13881C16.8095 9.17739 16.8095 9.22488 16.7998 9.26346C16.7901 9.38811 16.7901 9.52241 16.7901 9.6671V9.68639C16.0746 8.51481 14.828 6.82458 13.4358 6.162L13.4351 6.16496ZM17.9314 0.537065L15.9768 2.92772C15.9849 3.00266 15.9979 3.07701 16.0156 3.15031H18.9927L17.9314 0.537065ZM21.7091 0.364184L19.7851 2.48624L19.3116 3.00562L18.2391 0.37383L21.7091 0.364184ZM20.4043 8.36344C20.8855 9.00713 21.1737 9.77288 21.2356 10.5723C21.2341 10.589 21.2375 10.6057 21.2453 10.6205C21.4873 10.6205 21.6128 10.6109 21.854 10.6109V7.81586C21.854 7.4701 21.854 7.13399 21.8443 6.80752V6.11599C21.8346 5.26124 21.8346 4.40944 21.8249 3.44487C21.7569 3.91529 21.6703 4.42428 21.5642 4.94293C21.4298 5.75905 21.1858 6.5536 20.839 7.30538C20.6942 7.6183 20.5191 7.91649 20.3162 8.19576C20.3392 8.25304 20.3682 8.30775 20.4028 8.35899L20.4043 8.36344ZM17.3339 9.60254V9.68861C17.3353 9.94921 17.358 10.2093 17.4018 10.4662C17.4115 10.5048 17.4115 10.5523 17.4212 10.6005C17.4309 10.6487 17.4407 10.7348 17.4504 10.7927C18.7552 10.697 19.4027 10.6584 20.718 10.6294C20.7083 10.5716 20.6986 10.5241 20.6889 10.4662L20.6597 10.2644C20.6525 10.2119 20.6395 10.1604 20.6209 10.1108C20.6125 10.0586 20.5995 10.0072 20.5821 9.95721C20.5724 9.90898 20.5529 9.87114 20.5432 9.82291C20.5335 9.77468 20.5141 9.7272 20.5044 9.68861C20.4947 9.65003 20.4753 9.61442 20.4558 9.57361C20.4364 9.5328 20.4267 9.49941 20.4073 9.4586C20.3931 9.42576 20.3769 9.39379 20.3587 9.36289C20.3485 9.3193 20.3321 9.27735 20.3102 9.23823C20.2908 9.2093 20.2811 9.18036 20.2617 9.15217C20.2426 9.11181 20.2199 9.07331 20.1937 9.03716C20.1646 8.98893 20.1354 8.94144 20.107 8.90286C20.0976 8.88147 20.0844 8.86189 20.0682 8.84499C20.0294 8.77747 19.9816 8.71069 19.933 8.64317C19.933 8.64061 19.932 8.63816 19.9302 8.63635C19.9284 8.63454 19.9259 8.63352 19.9233 8.63352L19.9136 8.64317C19.8794 8.67443 19.8346 8.69166 19.7881 8.6914H19.7762C19.754 8.6898 19.7323 8.68387 19.7125 8.67394C19.6926 8.664 19.6749 8.65027 19.6604 8.63352C19.3341 8.84688 18.9461 8.94745 18.5564 8.91969C18.1668 8.89192 17.7972 8.73737 17.5049 8.47993C17.4855 8.53781 17.466 8.60459 17.4466 8.66246C17.4466 8.67211 17.4369 8.68175 17.4369 8.6914C17.4078 8.78711 17.3884 8.87392 17.369 8.96964C17.369 8.98893 17.3592 9.00822 17.3592 9.02751L17.3301 9.25827C17.3301 9.2872 17.3204 9.31614 17.3204 9.34434C17.3283 9.43042 17.3315 9.51686 17.3301 9.60329L17.3339 9.60254ZM19.3251 8.22915L16.3151 4.67582C16.5252 5.80594 16.9731 6.87926 17.6296 7.82551C17.7566 8.00577 17.926 8.15251 18.1231 8.25297C18.3202 8.35344 18.5389 8.40461 18.7604 8.40203C18.9584 8.38874 19.1505 8.32953 19.3213 8.22915H19.3251ZM19.5088 3.50423H21.2005C21.0866 4.49074 20.8696 5.46279 20.5529 6.40462L19.5073 3.50423H19.5088ZM19.567 4.6914L19.1324 3.50423H16.0776C16.1067 3.63853 16.1261 3.78247 16.1523 3.92642L19.6029 8.00729C19.632 7.97836 19.6612 7.95906 19.6992 7.92122C19.9741 7.61303 20.1961 7.26211 20.3565 6.88246L19.5633 4.69511L19.567 4.6914ZM23.5651 2.05441L22.1057 0.451738L19.6492 3.14883H21.2348C21.3506 2.18871 21.37 1.46825 21.37 1.44896C21.3765 1.37389 21.4127 1.30445 21.4707 1.25589C21.5287 1.20733 21.6037 1.18363 21.6792 1.19001H22.5299C22.6048 1.1868 22.6781 1.21164 22.7354 1.2596C22.7926 1.30756 22.8297 1.37514 22.8392 1.44896C22.8392 1.46825 22.8683 2.17906 22.9841 3.13918H24.5697L23.5651 2.05441ZM25.9724 0.364184L24.9088 2.99524L22.5023 0.364184H25.9724ZM26.2913 0.527419L25.2374 3.14883H28.2145C28.2242 3.07463 28.2436 2.99524 28.2534 2.91807L26.2913 0.525935V0.527419ZM26.6005 7.81586C26.475 7.99768 26.3059 8.14559 26.1085 8.24624C25.9111 8.3469 25.6915 8.39712 25.4697 8.39238C25.2709 8.38364 25.0777 8.3241 24.9088 8.2195L27.8963 4.65801C27.6949 5.79039 27.2534 6.8673 26.6012 7.81735L26.6005 7.81586ZM23.5554 10.4951C23.5457 10.5434 23.5457 10.5693 23.536 10.6198C24.8408 10.6487 25.4981 10.6777 26.8036 10.7734C26.8134 10.7059 26.8231 10.6487 26.8328 10.5812C26.844 10.534 26.8505 10.4858 26.8522 10.4373C26.8887 10.1828 26.9082 9.9263 26.9104 9.66932V9.57361C26.9121 9.49656 26.9088 9.4195 26.9007 9.34285C26.9007 9.31392 26.891 9.27533 26.891 9.24714C26.8813 9.17294 26.8716 9.10319 26.8619 9.03567C26.8619 9.00674 26.8522 8.98745 26.8522 8.96148C26.8352 8.87062 26.8125 8.78091 26.7842 8.69288C26.7842 8.67359 26.7745 8.66394 26.7648 8.64465L26.7065 8.47177C26.5341 8.62604 26.3325 8.74482 26.1136 8.82124C25.8946 8.89765 25.6626 8.93018 25.4309 8.91696C25.1189 8.89798 24.8166 8.80237 24.551 8.63872C24.5365 8.65546 24.5188 8.6692 24.499 8.67913C24.4791 8.68906 24.4574 8.695 24.4353 8.69659H24.4293C24.3832 8.69508 24.3389 8.67808 24.3038 8.64836L24.2941 8.63872C24.2941 8.64127 24.2931 8.64373 24.2913 8.64554C24.2894 8.64735 24.287 8.64836 24.2844 8.64836C24.1686 8.82124 24.0603 8.98448 23.9655 9.15736C23.946 9.1863 23.9363 9.21523 23.9169 9.24343C23.8989 9.2777 23.8827 9.31286 23.8684 9.34879C23.8482 9.38198 23.832 9.41732 23.8198 9.45415C23.8004 9.49273 23.7907 9.54022 23.7713 9.5788C23.7519 9.61738 23.7421 9.64632 23.7324 9.69381C23.715 9.74048 23.702 9.78867 23.6936 9.83775C23.6839 9.87634 23.6645 9.91195 23.6548 9.9624C23.6451 10.0129 23.6256 10.0774 23.6159 10.1353C23.6062 10.1932 23.5965 10.2214 23.5868 10.2696C23.5813 10.347 23.5716 10.424 23.5577 10.5003L23.5554 10.4951ZM23.4105 7.29722C23.0645 6.54432 22.8175 5.75031 22.6756 4.93477C22.5598 4.41538 22.4724 3.90713 22.4052 3.43671C22.4052 4.63723 22.3955 5.58845 22.3955 6.50034V10.6102C22.6375 10.6102 22.763 10.6102 23.0042 10.6198C23.0027 10.6031 23.0061 10.5864 23.0139 10.5716C23.0713 9.77116 23.36 9.00419 23.8452 8.3627C23.8841 8.31447 23.9132 8.25734 23.9513 8.19947C23.7441 7.91508 23.5629 7.61288 23.4098 7.29648L23.4105 7.29722ZM25.0925 3.49384L24.5996 4.88654L23.8841 6.88988C24.0444 7.26953 24.2665 7.62045 24.5413 7.92864C24.5712 7.95967 24.6034 7.98844 24.6377 8.01471L28.0793 3.92345C28.1085 3.77951 28.1376 3.63556 28.154 3.50126L25.0918 3.49162L25.0925 3.49384ZM23.6824 6.39498C23.3662 5.45246 23.146 4.48079 23.0251 3.49459H24.7168L23.6824 6.39498ZM28.9853 2.04476C29.1205 2.05441 29.1982 2.06405 29.3334 2.08335C29.5117 3.52665 30.0148 4.91154 30.8055 6.13528C29.4133 6.80752 28.1764 8.49774 27.4609 9.68861V9.66932C27.4609 9.52538 27.4609 9.39108 27.4512 9.26569C27.4495 9.22354 27.4429 9.18173 27.4318 9.14104C27.4236 9.05089 27.4106 8.96124 27.3929 8.87244L27.3638 8.7285C27.3444 8.6543 27.325 8.57491 27.2958 8.4881C27.284 8.43876 27.2678 8.39059 27.2473 8.34415C27.2182 8.26995 27.189 8.18092 27.1607 8.0941C27.1509 8.06517 27.1412 8.04588 27.1315 8.01991C28.3691 6.42614 28.8718 3.0264 28.9875 2.04699L28.9853 2.04476ZM3.68149 42.1279L3.88464 42.4447L4.10871 42.7519L4.55684 43.3662C4.87576 43.7602 5.17526 44.1631 5.5136 44.5282C6.16668 45.2761 6.87066 45.9787 7.62057 46.6309C7.99402 46.9478 8.36746 47.2646 8.76107 47.5525C8.95451 47.6964 9.14796 47.8493 9.35036 47.9843C9.55277 48.1193 9.74696 48.2529 9.93966 48.3879C10.3363 48.6662 10.7612 48.8873 11.1675 49.1373C11.5836 49.3599 11.9988 49.5981 12.4246 49.7903C14.065 50.5888 15.7988 51.1823 17.5863 51.5569C19.2593 51.8918 20.9652 52.0367 22.6711 51.9887C27.9833 51.8028 33.0532 49.7344 36.9636 46.1575C38.0515 45.1788 39.0323 44.0888 39.8899 42.9055C40.1991 42.5018 40.4022 42.1754 40.5471 41.955C40.692 41.7346 40.7712 41.6285 40.7712 41.6285C40.7712 41.6285 40.8392 41.5135 40.9743 41.2924C41.1095 41.0713 41.3224 40.7448 41.5547 40.2937C42.2684 39.0172 42.842 37.6682 43.2658 36.27C44.8505 31.2251 44.573 25.7843 42.4831 20.9244C41.7984 19.3691 40.9425 17.894 39.9309 16.5259C38.8377 15.0683 37.5611 13.7557 36.1323 12.6202C35.7745 12.3234 35.3779 12.0437 34.9918 11.7654C34.7983 11.6311 34.5952 11.5065 34.4025 11.3714L34.1037 11.1696C33.988 11.1021 33.8909 11.0449 33.7848 10.9774C33.5817 10.8528 33.3688 10.7274 33.1664 10.6064C32.964 10.4855 32.7414 10.3757 32.5188 10.2607C32.0938 10.0203 31.639 9.82885 31.1946 9.61738C30.4036 9.27084 29.5934 8.96935 28.768 8.7144C29.401 7.7573 30.2828 6.98815 31.3201 6.48847C31.3591 6.47431 31.3943 6.45132 31.4228 6.42131C31.4513 6.3913 31.4724 6.3551 31.4844 6.31559C31.4957 6.27609 31.4972 6.23446 31.4887 6.19427C31.4803 6.15408 31.4621 6.11652 31.4358 6.08483C30.5688 4.81819 30.0369 3.35503 29.889 1.83033C29.8797 1.76246 29.8464 1.70009 29.7951 1.6543C29.7439 1.60852 29.6779 1.58229 29.609 1.58029C29.2415 1.5417 29.0578 1.52241 28.7 1.49422C28.6606 1.48857 28.6206 1.49078 28.5821 1.50071C28.5436 1.51065 28.5075 1.52812 28.4759 1.55209C28.4199 1.59439 28.382 1.65613 28.3699 1.72497C28.3699 1.73462 28.3407 2.01286 28.2832 2.43579L26.3413 0.0614575C26.3316 0.0518118 26.3219 0.0518118 26.3122 0.0421661C26.3025 0.0325204 26.2816 0.0184229 26.2719 0.00655121C26.2605 -0.00112073 26.2467 -0.00453786 26.233 -0.00309449C26.2524 0.0161969 26.2427 0.00655121 26.233 0.00655121L17.9784 0.0184229C17.9687 0.0184229 17.959 0.0280686 17.9396 0.0280686C17.9259 0.0266252 17.9121 0.0300423 17.9007 0.0377143C17.8861 0.0449245 17.873 0.0547319 17.8619 0.0666514C17.8522 0.0762971 17.8425 0.0762971 17.8328 0.0859428L15.8998 2.45508C15.8416 2.02325 15.8132 1.75391 15.8132 1.74426C15.8084 1.70977 15.7965 1.67663 15.7782 1.64689C15.76 1.61716 15.7358 1.59146 15.7071 1.57138C15.6755 1.54741 15.6394 1.52994 15.601 1.52001C15.5625 1.51007 15.5224 1.50786 15.4831 1.51351C15.1156 1.55209 14.9319 1.56174 14.5644 1.60922C14.4959 1.61264 14.4307 1.63936 14.3797 1.68489C14.3287 1.73042 14.295 1.79199 14.2843 1.85927C14.1445 3.38545 13.6191 4.85188 12.7569 6.12267C12.7327 6.15547 12.7159 6.19303 12.7075 6.23283C12.6991 6.27263 12.6994 6.31375 12.7084 6.35343C12.7204 6.39294 12.7415 6.42914 12.77 6.45915C12.7985 6.48916 12.8337 6.51215 12.8727 6.52631C13.9199 7.03276 14.8112 7.80885 15.4539 8.77376C14.6311 9.03096 13.8241 9.33568 13.037 9.68639C12.0547 10.132 11.1051 10.6455 10.1951 11.223C9.28178 11.8057 8.41257 12.4539 7.59443 13.1626C6.77872 13.8781 6.01383 14.6489 5.30522 15.4694C4.60295 16.2974 3.96004 17.1733 3.38124 18.0908C1.07882 21.7649 -0.094198 26.0267 0.00605058 30.3534C0.107854 34.541 1.38045 38.6178 3.68149 42.1279Z" fill="#74716E"/>
<path fill-rule="evenodd" clip-rule="evenodd" d="M18.9935 35.1571C18.8666 35.764 18.6126 36.3377 18.2479 36.8407C17.8832 37.3437 17.416 37.7649 16.8768 38.0768C15.9683 38.7875 14.861 39.2022 13.7062 39.2639C12.8264 39.2639 12.382 38.9085 12.382 38.2073C12.382 37.3719 12.8944 36.6136 13.9385 35.9413C14.9277 35.2847 16.0934 34.94 17.2831 34.9523C17.8593 34.9557 18.4332 35.0234 18.9942 35.1541L18.9935 35.1571ZM15.9387 33.1307C14.5995 33.2972 13.3391 33.8509 12.314 34.723C11.6746 35.1869 11.1522 35.7919 10.7881 36.4904C10.4239 37.1889 10.2278 37.9617 10.2153 38.7482C10.1996 39.0718 10.2565 39.3948 10.3819 39.6938C10.5074 39.9928 10.6982 40.2603 10.9405 40.4771C11.6381 41.017 12.5141 41.2775 13.3955 41.2072C15.5994 41.2072 17.9418 39.834 20.423 37.0877C20.3158 36.5889 20.2608 36.0804 20.2587 35.5704C19.8889 35.4138 19.5076 35.2853 19.1182 35.186C19.0113 35.8167 18.7684 36.4169 18.4063 36.9457C18.0442 37.4745 17.5714 37.9193 17.0202 38.2496C16.0622 38.9662 14.9035 39.3689 13.7047 39.4019C12.7383 39.4019 12.2453 39.0079 12.2453 38.2148C12.2847 37.723 12.4502 37.2494 12.726 36.8393C13.0019 36.4291 13.379 36.0959 13.8213 35.8716C14.8421 35.1917 16.0428 34.8274 17.2719 34.8247C17.8539 34.8195 18.4345 34.8807 19.0024 35.0072V34.8247C19.0143 34.4276 18.8763 34.0404 18.6155 33.7392C17.703 33.6381 16.8048 33.4352 15.9379 33.1344L15.9387 33.1307ZM18.384 33.5247C17.7333 33.4256 17.0904 33.2813 16.46 33.0929C16.5564 33.0929 16.6535 33.0833 16.7498 33.0833C17.3295 33.0422 17.9058 33.1993 18.3833 33.5284L18.384 33.5247ZM15.6287 32.8236C17.1753 32.0168 18.7896 30.4418 20.4716 28.0986C21.1871 27.0599 21.9116 26.0211 22.6375 24.9875C23.3323 23.9824 24.1081 23.035 24.9574 22.1547C25.9608 23.4215 26.4598 25.011 26.3593 26.6199C26.3908 28.0591 25.9941 29.4756 25.2188 30.6919C25.4162 30.2504 25.5402 29.7801 25.5862 29.2992C25.5862 28.9341 25.412 28.7516 25.0634 28.7516C24.2543 28.8225 23.5002 29.1886 22.9467 29.7792C22.1666 30.497 21.5274 31.3524 21.0616 32.3019C20.8585 32.7032 20.6903 33.121 20.5589 33.5507C20.2385 33.5933 19.9157 33.6159 19.5925 33.6182C19.2886 33.6172 18.985 33.5979 18.6835 33.5603C18.4211 33.3313 18.1139 33.1586 17.7811 33.0528C17.4484 32.9471 17.0973 32.9108 16.7498 32.946C16.5257 32.946 16.3151 32.9556 16.1023 32.9749C15.9476 32.9267 15.793 32.8696 15.6287 32.8213V32.8236ZM24.3576 31.7477C24.8815 31.0126 25.2302 30.1687 25.3771 29.2799C25.3771 29.0209 25.2711 28.8955 25.0784 28.8955C23.9184 28.8955 22.8377 29.7021 21.8204 31.3062C21.3799 32.0019 21.023 32.7465 20.7569 33.5247C22.1003 33.3635 23.3518 32.7632 24.3143 31.8182C24.3336 31.7981 24.35 31.7754 24.3628 31.7507L24.3576 31.7477ZM21.438 35.8864L20.4036 35.4546C20.4285 34.8712 20.5289 34.2934 20.7023 33.7354C21.7508 33.6456 22.7687 33.3379 23.6899 32.8325C22.9923 33.8882 22.2405 34.9076 21.4373 35.8864H21.438ZM18.8471 33.7644C19.0459 34.0843 19.1466 34.4548 19.1369 34.8306V35.0421C19.5239 35.1438 19.9047 35.2677 20.2774 35.4131C20.2799 34.8547 20.358 34.2991 20.5096 33.7614C20.2109 33.7904 19.9121 33.8 19.591 33.8C19.349 33.8 19.098 33.7807 18.8441 33.7614L18.8471 33.7644ZM20.5388 36.9623C20.4493 36.5227 20.404 36.0753 20.4036 35.6267C20.8194 35.7994 21.1286 35.9339 21.3312 36.0304C20.9832 36.434 20.7128 36.7412 20.5388 36.9616V36.9623ZM11.9645 33.4572C11.0847 33.4572 10.65 33.2554 10.65 32.8525C10.65 32.3722 11.0946 32.132 11.9839 32.132C12.8888 32.1721 13.7821 32.3503 14.6324 32.6603C13.828 33.152 12.9084 33.4267 11.9645 33.4572ZM18.9345 24.8147C20.1644 23.6088 21.0714 22.1168 21.5732 20.4741C21.4574 20.4644 21.2834 20.4548 21.0317 20.4548C19.707 20.4491 18.4028 20.7796 17.2428 21.4149C16.2639 21.9419 15.4279 22.6964 14.8064 23.6141C14.2792 24.3016 13.9756 25.1325 13.9363 25.9959C13.9152 26.1539 13.9313 26.3145 13.9835 26.4652C14.0356 26.6159 14.1222 26.7526 14.2366 26.8643C14.351 26.976 14.4899 27.0598 14.6424 27.1091C14.795 27.1584 14.957 27.1717 15.1156 27.1482C16.2175 27.1482 17.4902 26.3703 18.9337 24.8147H18.9345ZM24.802 37.0877C24.5612 37.8094 24.4403 38.5652 24.4442 39.3255C24.4395 39.5886 24.4753 39.8508 24.5503 40.1031C25.6372 39.7347 26.6758 39.2382 27.6439 38.6243C27.4145 38.466 27.2311 38.2505 27.1123 37.9993C26.9935 37.7481 26.9435 37.4703 26.9672 37.1938C27.0019 36.0791 27.3762 35.001 28.0405 34.102C28.7068 33.1324 29.5656 32.3085 30.5642 31.6809C31.3874 31.0923 32.3641 30.7522 33.377 30.7015C33.7628 30.6619 34.1522 30.7277 34.5031 30.8918C34.854 31.0559 35.1531 31.3121 35.3682 31.6327C35.7589 31.1164 35.9936 30.5003 36.0449 29.8564C36.0449 29.1456 35.6483 28.7998 34.8499 28.7998C33.8042 28.7998 32.4598 29.3281 30.8167 30.3654C29.1486 31.4027 27.6764 32.7224 26.4668 34.2645C25.8457 35.0401 25.3288 35.8926 24.929 36.8006C25.6444 36.7959 26.3366 36.5485 26.8911 36.0994C26.9046 36.0826 26.9241 36.0717 26.9456 36.069C26.9535 36.0679 26.9616 36.0686 26.9691 36.0711C26.9767 36.0736 26.9836 36.0778 26.9892 36.0835C26.9949 36.0891 26.9992 36.0959 27.0017 36.1034C27.0042 36.111 27.005 36.119 27.0038 36.1268C27.003 36.139 26.999 36.1508 26.9922 36.1609C26.9854 36.1711 26.976 36.1793 26.965 36.1847C26.3683 36.7231 25.6038 37.0418 24.799 37.0877H24.802ZM27.2384 37.4817C27.3201 36.474 27.6779 35.5077 28.2728 34.6874C28.911 33.6663 29.7192 32.7603 30.6628 32.0081C31.4121 31.3204 32.3721 30.9023 33.389 30.821C33.7631 30.7764 34.1422 30.8406 34.4803 31.0059C34.8184 31.1712 35.1009 31.4304 35.2935 31.7521C34.3689 33.0297 33.3021 34.1996 32.1133 35.2394C30.7719 36.4626 29.3263 37.5678 27.7925 38.5427C27.6129 38.4328 27.4667 38.2764 27.3696 38.0903C27.2725 37.9042 27.2282 37.6954 27.2413 37.4861L27.2384 37.4817ZM35.5714 33.15C35.5864 32.7128 35.5072 32.2774 35.3391 31.8731C34.4042 33.1625 33.3242 34.3418 32.12 35.3878C30.8163 36.5822 29.4055 37.6558 27.9053 38.5954C28.1406 38.681 28.3897 38.7233 28.6403 38.7201C29.1719 38.7029 29.6941 38.5761 30.1738 38.3479C30.6535 38.1196 31.0802 37.7949 31.4269 37.3941C31.456 37.3652 31.4755 37.3556 31.4949 37.3556C31.5337 37.3556 31.5531 37.3845 31.5531 37.4513C31.1865 37.8723 30.7361 38.2134 30.2303 38.4531C29.7245 38.6928 29.1742 38.8258 28.6141 38.844C28.3275 38.8491 28.0433 38.79 27.7828 38.6711C26.7882 39.3196 25.7126 39.8362 24.5832 40.2077C24.8924 41.0914 25.6564 41.5433 26.8642 41.5329C28.1778 41.4799 29.4559 41.0932 30.5762 40.4095C31.9333 39.6681 33.1147 38.6465 34.041 37.4134C35.0167 36.2025 35.5546 34.701 35.5684 33.15H35.5714ZM10.0808 38.7675C10.0648 39.1595 10.1402 39.5498 10.3011 39.908C10.462 40.2662 10.7041 40.5826 11.0085 40.8325C11.7665 41.3872 12.6984 41.6559 13.6375 41.5908C16.5753 41.5908 19.3689 39.8397 22.0184 36.3376C22.7089 36.6648 23.4359 36.9099 24.1843 37.0677C23.9775 37.6966 23.8766 38.3552 23.8856 39.0168C23.8784 39.4217 23.9473 39.8243 24.0887 40.204C23.8203 40.2727 23.5443 40.308 23.2672 40.3094C22.2133 40.3094 21.5493 39.9384 21.2759 39.1964C21.2662 39.1578 21.2565 39.1385 21.2371 39.1385C21.1983 39.1385 21.1789 39.1962 21.1789 39.3114C21.4776 40.0608 22.1842 40.4444 23.2858 40.4348C23.5757 40.4323 23.8644 40.3969 24.1462 40.3294C24.5623 41.2606 25.4219 41.7317 26.7275 41.7317C28.0996 41.6817 29.4363 41.2851 30.6113 40.5795C32.0025 39.8248 33.2154 38.7835 34.1687 37.5255C35.1537 36.2743 35.6972 34.7361 35.7155 33.1478C35.735 32.6639 35.6355 32.1826 35.4257 31.7455C35.8555 31.1972 36.115 30.5363 36.1726 29.8438C36.1726 29.0469 35.67 28.6433 34.6744 28.6433C32.9356 28.7212 31.2555 29.2909 29.8316 30.2853C28.192 31.3154 26.773 32.6565 25.6557 34.2318C25.0957 35.001 24.6497 35.8461 24.3315 36.7412C23.5719 36.6717 22.828 36.4836 22.1274 36.184C23.0417 34.9582 23.8372 33.6492 24.5033 32.2745C24.8472 32.0042 25.1648 31.7024 25.4518 31.373C26.5916 30.0245 27.1996 28.3106 27.1629 26.5501C27.2019 25.6787 27.0598 24.8085 26.7455 23.994C26.4312 23.1794 25.9514 22.4379 25.336 21.8156C26.1369 21.0527 27.0661 20.4352 28.0816 19.9911C28.0965 19.9907 28.1109 19.9859 28.123 19.9773C28.1351 19.9687 28.1444 19.9567 28.1496 19.9428C28.1496 19.8855 28.111 19.8568 28.0338 19.8568C26.9764 20.2961 25.9939 20.8953 25.1209 21.6331C24.1828 20.8363 23.0002 20.3793 21.7667 20.3368C21.8382 19.9893 21.8705 19.6349 21.863 19.2802C21.863 17.9261 21.1086 17.2539 19.6223 17.2539C18.1244 17.3043 16.6805 17.8216 15.495 18.7327C14.181 19.6725 13.0809 20.8766 12.2662 22.2667C11.4625 23.5332 11.0151 24.9905 10.9704 26.4871C10.9066 27.1878 11.1035 27.8874 11.5238 28.4537C11.9441 29.02 12.5587 29.4137 13.2514 29.5603C13.3194 29.5603 13.3477 29.5314 13.3477 29.4743C13.3473 29.4595 13.3425 29.4452 13.3338 29.4331C13.3252 29.4211 13.3131 29.4119 13.2992 29.4068C12.6367 29.2714 12.048 28.8974 11.6465 28.3567C11.245 27.8161 11.0589 27.1469 11.1242 26.4782C11.1686 25.0307 11.6027 23.6216 12.3813 22.3973C13.1846 21.0193 14.2676 19.8224 15.5615 18.8825C16.7222 17.9734 18.1444 17.4554 19.6216 17.4038C21.0138 17.4038 21.7129 18.0181 21.7129 19.2587C21.7221 19.6075 21.6898 19.9562 21.6165 20.2975C21.4813 20.2879 21.2879 20.2782 21.0272 20.2782C19.1115 20.2505 17.2553 20.9391 15.8267 22.2073C15.2319 22.6487 14.7416 23.214 14.3903 23.8636C14.0389 24.5132 13.835 25.2314 13.7929 25.9677C13.7677 26.145 13.7844 26.3257 13.8416 26.4955C13.8988 26.6653 13.9949 26.8197 14.1223 26.9463C14.2498 27.0729 14.4051 27.1684 14.5761 27.2252C14.747 27.282 14.9289 27.2985 15.1074 27.2736C16.3522 27.2736 17.667 26.5563 19.0517 25.1218C20.3522 23.8388 21.2776 22.2291 21.7293 20.4644C22.8725 20.5747 23.9402 21.0812 24.7452 21.895C23.5687 23.0083 22.4825 24.2123 21.497 25.4958C19.6796 27.7623 18.6091 29.081 18.2854 29.452C17.3034 30.6392 16.1463 31.6721 14.8535 32.5156C13.9245 32.1703 12.9447 31.9787 11.9533 31.9488C10.9577 31.9488 10.455 32.2367 10.455 32.8228C10.455 33.3704 10.9577 33.639 11.9727 33.639C13.1368 33.6669 14.2896 33.4063 15.327 32.8807L15.6459 32.9957C14.3634 33.2048 13.1632 33.7594 12.1759 34.5991C11.5359 35.0948 11.0156 35.7264 10.6531 36.4476C10.2906 37.1689 10.0951 37.9615 10.0808 38.7675Z" fill="#74716E"/>
<path d="M26.7266 41.9751C26.1897 42.032 25.6476 41.9336 25.1657 41.6916C24.6838 41.4497 24.2825 41.0746 24.0102 40.6114C23.7712 40.6567 23.5283 40.6794 23.285 40.6789C22.0765 40.6789 21.2938 40.247 20.9554 39.4019L20.936 39.3159C20.936 38.9449 21.1489 38.9026 21.2347 38.9026C21.3018 38.9055 21.366 38.9309 21.4168 38.9745C21.4676 39.0181 21.5021 39.0775 21.5148 39.143C21.7389 39.7573 22.317 40.0742 23.2745 40.0742C23.4429 40.076 23.6111 40.0631 23.7772 40.0356C23.6891 39.7068 23.6469 39.3675 23.6517 39.0272C23.6471 38.4305 23.7252 37.8361 23.884 37.2606C23.2729 37.1167 22.6773 36.9142 22.1056 36.6559C19.4572 40.0935 16.6152 41.8416 13.6471 41.8497C12.6514 41.9122 11.6655 41.6231 10.8635 41.0335C10.5311 40.7597 10.2661 40.4141 10.0885 40.0231C9.91094 39.632 9.82551 39.2059 9.83873 38.7772C9.85254 37.9384 10.0592 37.1139 10.4429 36.3666C10.8265 35.6193 11.3771 34.9691 12.0525 34.4656C12.3022 34.2588 12.5636 34.0664 12.8352 33.889C12.5558 33.9167 12.2751 33.9296 11.9943 33.9276C10.5445 33.9276 10.2346 33.3511 10.2346 32.871C10.2346 32.3621 10.5333 31.7581 11.9748 31.7581C12.9545 31.7848 13.9237 31.9664 14.8459 32.296C16.075 31.4709 17.1787 30.4749 18.1232 29.3385C18.4421 28.9734 19.5251 27.6483 21.3348 25.3919C22.2777 24.1674 23.3083 23.0121 24.4187 21.935C23.7256 21.3107 22.8606 20.9062 21.9346 20.7731C21.4483 22.4953 20.522 24.0634 19.2458 25.3251C17.8267 26.7943 16.433 27.5437 15.1274 27.5437C14.9171 27.5682 14.7039 27.545 14.5038 27.476C14.3037 27.407 14.122 27.2938 13.9722 27.145C13.8224 26.9962 13.7085 26.8157 13.639 26.6169C13.5695 26.4182 13.5463 26.2063 13.5709 25.9974C13.6103 25.2253 13.8203 24.4712 14.186 23.7888C14.5517 23.1063 15.0641 22.5122 15.6869 22.0486C17.1643 20.7466 19.0769 20.038 21.0518 20.0608C21.2064 20.0608 21.3318 20.0608 21.4484 20.0705C21.4914 19.8104 21.5076 19.5466 21.4969 19.2832C21.4969 18.1792 20.9076 17.6702 19.6506 17.6702C18.2255 17.7206 16.8538 18.2218 15.7354 19.1007C14.4697 20.0198 13.4103 21.1904 12.6246 22.5383C11.8694 23.7255 11.4456 25.0909 11.3967 26.4945C11.3348 27.1106 11.5051 27.7276 11.8747 28.2261C12.2443 28.7246 12.787 29.0692 13.3977 29.1931C13.4736 29.2145 13.5389 29.263 13.5811 29.3292C13.6233 29.3955 13.6393 29.475 13.6262 29.5523C13.613 29.6296 13.5716 29.6994 13.5099 29.7483C13.4481 29.7971 13.3704 29.8216 13.2916 29.8171L13.2236 29.8074C12.4805 29.6467 11.8216 29.2229 11.3699 28.6151C10.9181 28.0073 10.7044 27.257 10.7686 26.5041C10.8141 24.9661 11.2712 23.4679 12.0928 22.1636C12.9273 20.7461 14.0495 19.5165 15.3881 18.5531C16.6155 17.6175 18.1053 17.0839 19.6513 17.0261C21.7008 17.0261 22.1355 18.2556 22.1355 19.2825C22.1374 19.5652 22.1179 19.8477 22.0772 20.1276C23.1992 20.2159 24.2693 20.6338 25.1514 21.3281C26.0027 20.6338 26.95 20.0646 27.9642 19.6379L28.0389 19.6089C28.0846 19.604 28.1309 19.6087 28.1746 19.623C28.2183 19.6372 28.2585 19.6606 28.2924 19.6915C28.3263 19.7224 28.3531 19.7602 28.3711 19.8023C28.3891 19.8443 28.3978 19.8897 28.3967 19.9354L28.3869 20.0096C28.3682 20.0608 28.3373 20.1068 28.2969 20.1436C28.2565 20.1804 28.2077 20.207 28.1547 20.2211C27.2536 20.624 26.4219 21.1651 25.6899 21.8245C26.8604 23.1169 27.4768 24.8122 27.4078 26.5494C27.4448 28.3648 26.8162 30.1316 25.6391 31.5207C25.3522 31.85 25.0351 32.1523 24.6921 32.4236C24.0636 33.6952 23.3296 34.9125 22.4977 36.063C23.0341 36.2617 23.5921 36.3971 24.1603 36.4667C24.4787 35.6169 24.9146 34.8153 25.4554 34.0849C26.5904 32.4846 28.0326 31.1229 29.6992 30.0782C31.1633 29.065 32.8853 28.4825 34.6675 28.3977C36.1075 28.3977 36.4078 29.1753 36.4078 29.8378C36.3563 30.5308 36.1119 31.1959 35.702 31.7588C35.8803 32.1978 35.966 32.6686 35.9537 33.1419C35.9304 34.7826 35.3704 36.3712 34.3583 37.6679C33.3867 38.9556 32.1471 40.02 30.724 40.7887C29.513 41.5114 28.1382 41.9194 26.7266 41.9751ZM24.9191 40.3717C25.1141 40.7031 25.4038 40.9694 25.7514 41.1369C26.099 41.3044 26.4889 41.3656 26.8715 41.3125C28.1449 41.2599 29.3832 40.883 30.4678 40.2181C31.795 39.4919 32.9516 38.4936 33.8609 37.2895C34.7948 36.1071 35.3111 34.6522 35.33 33.1493C35.3292 32.898 35.3065 32.6473 35.2621 32.3999C34.3738 33.5452 33.3804 34.6061 32.2947 35.5689C31.1279 36.6367 29.8769 37.6098 28.5535 38.4789C29.0692 38.4807 29.5791 38.3698 30.0468 38.154C30.5146 37.9381 30.9289 37.6228 31.2602 37.2302C31.3224 37.1615 31.4094 37.1202 31.5022 37.1152C31.5447 37.1158 31.5865 37.1253 31.6251 37.143C31.6637 37.1606 31.6981 37.1861 31.7263 37.2177C31.7544 37.2494 31.7755 37.2865 31.7884 37.3267C31.8013 37.3669 31.8055 37.4093 31.801 37.4513V37.547L31.733 37.6145C31.3413 38.0559 30.8635 38.4137 30.3285 38.6662C29.7936 38.9187 29.2126 39.0607 28.6207 39.0836C28.3434 39.0868 28.068 39.0379 27.8089 38.9397C26.9021 39.5223 25.9326 40.0024 24.9184 40.371L24.9191 40.3717ZM20.3952 37.478C18.528 39.4947 16.7123 40.7427 14.9721 41.2235C17.3211 40.7627 19.6028 39.1111 21.7688 36.2782H21.7591L21.9428 36.0282C22.6557 35.0665 23.2986 34.0556 23.8668 33.0031C23.2693 33.9158 22.5425 34.9048 21.7008 35.9414H21.7105L21.5074 36.1817C21.1593 36.5854 20.8986 36.8926 20.7149 37.1129L20.396 37.5069L20.3952 37.478ZM15.9199 33.3682C14.6481 33.5464 13.4534 34.0801 12.4752 34.907C11.8658 35.3516 11.3676 35.9296 11.0193 36.5962C10.671 37.2629 10.482 38.0003 10.4669 38.7512C10.4519 39.0415 10.5012 39.3315 10.6114 39.6007C10.7216 39.87 10.89 40.1119 11.1047 40.3094C11.7603 40.8026 12.5758 41.0385 13.3954 40.972C15.4934 40.972 17.7647 39.6364 20.1622 37.0254C20.0785 36.6014 20.0333 36.1708 20.027 35.7388C19.7664 35.6334 19.5341 35.5563 19.3212 35.4887C19.0261 36.7223 18.251 37.7895 17.1657 38.4567C16.1649 39.1938 14.9605 39.6081 13.7151 39.6438C12.3132 39.6438 12.0137 38.8662 12.0137 38.2229C12.0515 37.6912 12.226 37.1781 12.5205 36.7325C12.815 36.2869 13.2196 35.9238 13.6957 35.6779C14.7533 34.9656 16.0029 34.5873 17.2807 34.5924C17.7797 34.589 18.2779 34.6307 18.7693 34.7171C18.7567 34.4476 18.6662 34.1874 18.5086 33.9677C17.626 33.8636 16.7576 33.6633 15.9191 33.3704L15.9199 33.3682ZM24.465 36.9786L24.4068 37.1419C24.2076 37.7461 24.1097 38.3788 24.117 39.0146C24.1096 39.3602 24.1619 39.7046 24.2716 40.0326C24.2186 39.7962 24.1936 39.5544 24.1969 39.3122C24.1955 38.5295 24.3196 37.7515 24.5644 37.0076L24.6996 36.6907C25.1056 35.762 25.633 34.8903 26.268 34.0983C27.4939 32.5348 28.9852 31.196 30.6747 30.1421C30.9936 29.9402 31.3028 29.7577 31.5933 29.5945C31.0253 29.8501 30.4762 30.1454 29.9502 30.4782C28.3399 31.4937 26.9446 32.8116 25.8423 34.358C25.2897 35.1002 24.8561 35.9229 24.5569 36.7969L24.4986 36.9794L24.465 36.9786ZM24.9774 37.3147C24.7806 37.9646 24.68 38.6395 24.6786 39.3181C24.6755 39.4726 24.6885 39.627 24.7175 39.7789C25.5889 39.4596 26.4273 39.0576 27.2211 38.5783C27.0483 38.3891 26.915 38.1677 26.8287 37.927C26.7425 37.6864 26.705 37.4311 26.7184 37.176C26.7185 36.9931 26.7282 36.8103 26.7475 36.6284C26.2325 37.016 25.6196 37.2546 24.9767 37.3177L24.9774 37.3147ZM17.2725 35.2046C16.131 35.1998 15.0136 35.5305 14.0609 36.155C13.1041 36.779 12.6112 37.4706 12.6209 38.22C12.6209 38.6043 12.7464 39.0361 13.7039 39.0361C14.8087 38.9708 15.8664 38.5684 16.7325 37.8838C17.6917 37.3156 18.3968 36.4055 18.7043 35.3389C18.2327 35.2467 17.7531 35.2017 17.2725 35.2046ZM33.3881 31.0562C32.4271 31.1431 31.5224 31.5451 30.8166 32.1988C29.8971 32.936 29.1091 33.8217 28.4855 34.8187C27.916 35.5998 27.5711 36.5201 27.4877 37.481C27.4785 37.6223 27.5016 37.7639 27.5551 37.8952C27.6087 38.0265 27.6913 38.1441 27.7969 38.2393C29.2667 37.2931 30.6538 36.2258 31.9436 35.0487C33.0777 34.0556 34.1017 32.945 34.9984 31.7358C34.8121 31.4938 34.5658 31.304 34.2836 31.1848C34.0013 31.0657 33.6928 31.0214 33.3881 31.0562ZM34.8475 29.0202C33.8519 29.0202 32.5374 29.5396 30.942 30.5472C29.2983 31.5679 27.8484 32.8681 26.6586 34.3884C26.1383 35.048 25.6878 35.7591 25.3142 36.5104C25.8387 36.4336 26.3327 36.2181 26.7445 35.8864C26.7942 35.8396 26.8598 35.8131 26.9283 35.8122C27.1314 35.1504 27.4382 34.5244 27.8372 33.9573C28.5262 32.9657 29.4069 32.1202 30.4282 31.4702C31.2922 30.857 32.3155 30.5036 33.3762 30.4522C33.7393 30.4263 34.1038 30.4793 34.4443 30.6074C34.7848 30.7355 35.0932 30.9358 35.3479 31.1942C35.6122 30.7909 35.769 30.3275 35.8035 29.8475C35.8035 29.2702 35.513 29.0202 34.846 29.0202H34.8475ZM20.6567 36.0014C20.6664 36.1357 20.6761 36.27 20.6955 36.4051C20.7702 36.319 20.8501 36.2226 20.9375 36.1172C20.8494 36.0801 20.7657 36.04 20.6559 36.0014H20.6567ZM20.6567 35.3003L21.3722 35.5971C21.9697 34.8477 22.5224 34.1183 22.9959 33.4268C22.3199 33.6937 21.6115 33.8713 20.8889 33.9551C20.7668 34.395 20.6887 34.8458 20.6559 35.301L20.6567 35.3003ZM29.0965 33.1782C28.7832 33.5053 28.4951 33.8552 28.2346 34.2252C27.9855 34.5848 27.7719 34.9674 27.5967 35.3678C27.7322 35.1086 27.8868 34.8398 28.0606 34.5613C28.3721 34.0768 28.7175 33.6147 29.0942 33.1782H29.0965ZM19.3795 34.8588C19.5826 34.9167 19.8045 34.9931 20.0464 35.0703C20.0654 34.7173 20.1172 34.3668 20.2011 34.0233C19.8918 34.0426 19.5826 34.0426 19.254 34.033C19.3417 34.2895 19.3841 34.559 19.3795 34.8299V34.8588ZM18.7902 33.3348C19.3204 33.3924 19.8553 33.3924 20.3855 33.3348C20.5143 32.9458 20.6726 32.567 20.8591 32.2018C21.3349 31.2224 21.9907 30.3399 22.7928 29.5997C23.3916 28.9699 24.2038 28.5824 25.073 28.5119C25.1738 28.5068 25.2747 28.5221 25.3694 28.5567C25.4642 28.5914 25.5508 28.6448 25.6242 28.7137C25.6921 28.7823 25.7448 28.8642 25.7788 28.9542C26.0154 28.1955 26.1328 27.4052 26.1269 26.611C26.2041 25.1493 25.7894 23.7036 24.9483 22.5019C24.1832 23.3207 23.479 24.1936 22.8413 25.1137C22.1161 26.1524 21.3916 27.1912 20.6753 28.2248C19.5102 29.9842 18.0203 31.5086 16.2844 32.7175C16.439 32.7078 16.5936 32.6982 16.7482 32.6982C17.4854 32.6465 18.2149 32.8739 18.7902 33.3348ZM25.1021 29.1382C24.0005 29.1382 22.9757 29.9158 22.0279 31.4331C21.6719 31.9983 21.3717 32.5964 21.1317 33.219C22.2764 33.0071 23.3305 32.4583 24.1573 31.6438V31.6245C24.661 30.9281 24.9982 30.1267 25.1432 29.2814C25.1432 29.176 25.1141 29.1374 25.1044 29.1374L25.1021 29.1382ZM11.9748 32.3813C10.8821 32.3813 10.8821 32.7464 10.8821 32.8614C10.8821 33.1782 11.5588 33.2265 11.9554 33.2265C12.6568 33.2124 13.346 33.0417 13.972 32.7271C13.3255 32.5209 12.6534 32.4046 11.9748 32.3813ZM14.875 32.8035L14.7398 32.8777C14.6143 32.9452 14.4881 33.012 14.3529 33.0795C14.655 32.9775 14.949 32.8535 15.2328 32.7086L15.3291 32.6603L15.3874 32.6796L15.5226 32.6121C17.0305 31.8249 18.6348 30.2593 20.2787 27.9644C20.9943 26.9256 21.7187 25.8868 22.4447 24.8532L22.8182 24.3339C22.4604 24.7471 22.0929 25.1983 21.7068 25.688C19.8993 27.9443 18.8163 29.2791 18.4877 29.6538C17.4886 30.8593 16.3122 31.9081 14.9982 32.7649L14.9019 32.8228L14.875 32.8035ZM24.2903 32.1699C24.2514 32.2085 24.2036 32.2441 24.1648 32.2849L24.2611 32.227L24.2903 32.1699ZM25.1118 21.9425L25.1507 21.9907C26.1846 23.3037 26.7032 24.9451 26.6101 26.6095C26.6377 28.0958 26.2278 29.5577 25.4308 30.8158L24.9281 31.5837C25.0536 31.4591 25.1696 31.3354 25.2762 31.2127C26.378 29.9073 26.9653 28.2489 26.929 26.5457C26.9663 25.7061 26.8296 24.8679 26.5275 24.083C26.2253 23.298 25.7641 22.5831 25.1723 21.9825L25.1432 21.9343L25.1335 21.9439L25.0588 21.8764L25.1171 21.9439L25.1118 21.9425ZM21.0421 20.7034C19.7577 20.6972 18.4932 21.0177 17.3689 21.6345C16.4247 22.1465 15.6163 22.8738 15.0102 23.7566C14.5107 24.405 14.2208 25.1886 14.1789 26.004C14.1789 26.6473 14.459 26.9167 15.1162 26.9167C16.141 26.9167 17.3689 26.1584 18.7603 24.6603C19.8797 23.546 20.735 22.1978 21.2639 20.7138C21.1902 20.7056 21.1161 20.7023 21.0421 20.7041V20.7034Z" fill="#74716E"/>
<path d="M22.1825 48.9372C18.5044 48.9426 14.9072 47.8644 11.8459 45.8389C8.78455 43.8134 6.39655 40.9317 4.98384 37.558C3.57113 34.1843 3.19715 30.4702 3.9092 26.8853C4.62124 23.3005 6.38733 20.0059 8.98415 17.4182C11.581 14.8305 14.8919 13.0658 18.4982 12.3473C22.1046 11.6289 25.8444 11.9889 29.2448 13.3819C32.6451 14.7749 35.5534 17.1383 37.6017 20.1732C39.65 23.2081 40.7465 26.7783 40.7524 30.4322C40.7548 35.3309 38.8009 40.0304 35.3195 43.4996C31.8381 46.9688 27.1136 48.9244 22.1825 48.9372ZM22.1242 12.9446C18.6371 12.9504 15.23 13.9834 12.3338 15.9129C9.43755 17.8424 7.18232 20.5817 5.85323 23.7845C4.52414 26.9872 4.18089 30.5096 4.86689 33.9061C5.55289 37.3027 7.23733 40.4209 9.7072 42.8664C12.1771 45.312 15.3215 46.975 18.7427 47.6453C22.164 48.3156 25.7085 47.9629 28.9281 46.632C32.1476 45.3011 34.8976 43.0516 36.8303 40.1681C38.763 37.2846 39.7915 33.8965 39.7859 30.4322C39.7754 25.7875 37.9095 21.3369 34.5981 18.0579C31.2866 14.7789 26.8005 12.9398 22.125 12.9446H22.1242Z" fill="#74716E"/>
</g>
<defs>
<clipPath id="clip0">
<rect width="180" height="52" fill="white"/>
</clipPath>
</defs>
</svg>
